<?xml version="1.0" encoding="UTF-8"?>
<svg version="1.1" xmlns="http://www.w3.org/2000/svg" width="151" height="174">
<path d="M0 0 C2.86376055 3.51423124 4 6.39436445 4 11 C4.763125 10.34 5.52625 9.68 6.3125 9 C10.86101197 5.98916466 15.75295018 6.24299988 21 7 C24.94236026 8.36294846 28.04884344 10.04884344 31 13 C30.79038014 18.45011642 29.38866428 21.76416965 26 26 C22.63704668 28.96260173 20.44764511 30.88182489 15.9375 31.25 C12.31958341 31.02029101 10.90613511 30.56019963 7.765625 29.12109375 C4.96607818 28.15956381 3.65053433 27.74252944 0.86938477 28.84326172 C-1.30829284 30.36776652 -3.23333575 32.01085589 -5.1875 33.8125 C-5.85974609 34.37904297 -6.53199219 34.94558594 -7.22460938 35.52929688 C-14.64069636 41.96331197 -19.70963818 48.05210541 -20.94921875 57.96875 C-21.06993346 65.17448955 -18.51411294 71.42374284 -14 77 C-11.72772946 79.00176215 -9.70333897 80.64833052 -7 82 C-7 74.74 -7 67.48 -7 60 C-9.97 58.35 -12.94 56.7 -16 55 C-16.495 53.02 -16.495 53.02 -17 51 C-15.5625 49.25 -15.5625 49.25 -14 48 C-10.27452289 49.21294604 -6.63022016 50.52812198 -3 52 C-2.65710938 51.45472656 -2.31421875 50.90945312 -1.9609375 50.34765625 C4.62604271 40.85656407 14.65090222 34.30054066 25.81640625 31.33984375 C31.93603617 30.38741476 31.93603617 30.38741476 34.8046875 32.0390625 C36.65291999 35.07113018 36.18698081 37.86964111 36.125 41.375 C36.15241018 46.64691675 36.15241018 46.64691675 38.953125 50.921875 C41.32690284 52.16710259 41.32690284 52.16710259 43.7734375 52.9453125 C46.84467835 54.4001108 47.5316213 55.9552992 49 59 C49.32279968 62.14485168 49.32279968 62.14485168 49.2487793 65.71801758 C49.23946381 66.37223694 49.23014832 67.0264563 49.22055054 67.70050049 C49.18635149 69.84905431 49.13043264 71.99645031 49.07421875 74.14453125 C49.04616722 75.63951702 49.01947877 77.13452893 48.99409485 78.62956238 C48.92381126 82.55406769 48.83506717 86.4779447 48.74243164 90.40197754 C48.65108781 94.41034768 48.57726504 98.41903664 48.50195312 102.42773438 C48.35175077 110.28557314 48.18203827 118.1428346 48 126 C43.31689453 127.14746094 43.31689453 127.14746094 40.46484375 125.8203125 C39.63082031 125.26085937 38.79679687 124.70140625 37.9375 124.125 C30.29932079 119.06426493 21.95266729 119.10039507 13 120 C8.64745733 121.18015251 5.27354819 122.94477436 1.8125 125.8125 C0 127 0 127 -2.875 126.9375 C-6 126 -6 126 -8.625 124.125 C-15.49986518 119.79638118 -23.51529447 118.23914 -31.546875 119.41796875 C-36.66043071 120.63121684 -41.94401617 122.23656723 -45.9765625 125.6953125 C-48 127 -48 127 -50.62646484 126.58154297 C-51.40973145 126.38963379 -52.19299805 126.19772461 -53 126 C-53.20879841 116.97710984 -53.36857376 107.95505438 -53.46630955 98.93027306 C-53.51322647 94.73926682 -53.576821 90.54991639 -53.67895508 86.35986328 C-53.77696013 82.31374568 -53.83059901 78.26921704 -53.85389519 74.22200394 C-53.87048864 72.6804464 -53.90289655 71.13897321 -53.95157051 69.59809494 C-54.31643375 57.56579364 -54.31643375 57.56579364 -51.11227417 53.75469971 C-48.7780776 52.14548688 -46.63648852 51.03115539 -44 50 C-43.14519547 49.62861908 -42.29039093 49.25723816 -41.40968323 48.87460327 C-38.5021911 47.81931845 -36.06902852 47.85725449 -33 48 C-32.67 49.65 -32.34 51.3 -32 53 C-36.29 55.31 -40.58 57.62 -45 60 C-45.33 78.48 -45.66 96.96 -46 116 C-42.7 114.68 -39.4 113.36 -36 112 C-33 111.25 -33 111.25 -30 111 C-29.28585938 110.93683594 -28.57171875 110.87367188 -27.8359375 110.80859375 C-20.08052362 110.42697815 -12.92632567 112.53683717 -6 116 C-6 107.75 -6 99.5 -6 91 C-8.97 90.01 -8.97 90.01 -12 89 C-20.00918346 83.19484748 -26.70744834 76.02679281 -28.71875 66.125 C-29.775695 58.13919333 -28.70258009 51.56078954 -26 44 C-27.03125 43.773125 -28.0625 43.54625 -29.125 43.3125 C-34.102932 41.87869403 -37.57656148 39.26456128 -40.375 34.8125 C-41.62882078 29.1703065 -42.19093704 23.04482651 -39 18 C-34.9834658 15.9917329 -30.63471072 16.86868054 -26.375 17.75 C-21.42649196 19.58278076 -18.84290732 21.54671151 -16.1875 26.125 C-15 29 -15 29 -15 31 C-7.56166165 26.5190495 -7.56166165 26.5190495 -2 20 C-2 18.68 -2 17.36 -2 16 C-2.66386719 15.92523438 -3.32773438 15.85046875 -4.01171875 15.7734375 C-12.12789804 14.56489693 -12.12789804 14.56489693 -15.0625 11.1875 C-18 6.35483871 -18 6.35483871 -18 3 C-16.89915176 0.43135412 -15.79917522 -0.63363653 -13.26171875 -1.796875 C-8.04627741 -3.45771457 -4.74039925 -3.00833029 0 0 Z M-9 5 C-9 5.66 -9 6.32 -9 7 C-7.68 7.33 -6.36 7.66 -5 8 C-5.33 7.01 -5.66 6.02 -6 5 C-6.99 5 -7.98 5 -9 5 Z M8 19 C8.56362302 21.04836882 8.56362302 21.04836882 10 23 C13.07606709 23.93619433 15.09800619 24.28348377 18.1875 23.3125 C20.3159139 21.77123477 21.60964248 20.22457203 23 18 C23 17.34 23 16.68 23 16 C16.65294928 12.09412263 12.64634557 13.5337111 8 19 Z M-32 24 C-33.43920901 25.22321622 -33.43920901 25.22321622 -33.3125 28.875 C-33.27992841 32.22021517 -33.27992841 32.22021517 -31.375 34.9375 C-28.58862755 36.18403504 -26.02458441 36.65629723 -23 37 C-22.46344993 31.42426641 -22.46344993 31.42426641 -24.6875 26.5625 C-27.2059603 24.86083764 -28.98138625 24.24475247 -32 24 Z M9.45703125 48.51171875 C3.23202261 54.81590079 0.31631146 59.97269706 0.32022095 68.94789124 C0.35118866 70.03887619 0.38215637 71.12986115 0.4140625 72.25390625 C0.42679703 73.96609596 0.42679703 73.96609596 0.43978882 75.71287537 C0.47316385 79.33040919 0.54841976 82.94564894 0.625 86.5625 C0.65511985 89.02666034 0.68249209 91.49085589 0.70703125 93.95507812 C0.77290302 99.97082435 0.87309294 105.98524823 1 112 C1.82451157 111.38151436 1.82451157 111.38151436 2.66567993 110.75053406 C3.38653778 110.2098378 4.10739563 109.66914154 4.85009766 109.11206055 C5.56477203 108.57598679 6.27944641 108.03991302 7.01577759 107.4875946 C11.2814626 104.28956097 11.2814626 104.28956097 13.375 102.8125 C14.02210937 102.34457031 14.66921875 101.87664062 15.3359375 101.39453125 C19.29465589 99.3222989 23.72015624 98.28395313 28 97 C28 77.86 28 58.72 28 39 C21.0843283 39 14.63661895 44.50032993 9.45703125 48.51171875 Z M36 57 C35.09683675 59.70948975 34.853425 61.40135334 34.79467773 64.19604492 C34.77473251 65.03668991 34.75478729 65.8773349 34.73423767 66.74345398 C34.70916893 68.09827629 34.70916893 68.09827629 34.68359375 69.48046875 C34.66281265 70.40845779 34.64203156 71.33644684 34.62062073 72.29255676 C34.55522677 75.2574624 34.49628738 78.22245672 34.4375 81.1875 C34.39430513 83.1972748 34.35069053 85.20704063 34.30664062 87.21679688 C34.19955573 92.14444032 34.09825955 97.07217299 34 102 C33.11159424 102.2568457 32.22318848 102.51369141 31.30786133 102.77832031 C29.55638794 103.29797363 29.55638794 103.29797363 27.76953125 103.828125 C26.61300049 104.1674707 25.45646973 104.50681641 24.26489258 104.85644531 C20.11530502 106.30987148 17.35090316 108.1945927 14 111 C16.82496183 111.82604911 19.07650742 112.01736596 22 111.8125 C27.23935617 111.71660496 31.62259432 113.33244848 36.49609375 115.125 C38.87260803 116.10996373 38.87260803 116.10996373 41 116 C41.11583023 108.75049833 41.20468169 101.50119598 41.25906086 94.25095654 C41.28516016 90.88433854 41.32056069 87.51835335 41.37719727 84.15209961 C41.43769753 80.28221768 41.46617712 76.41323647 41.48828125 72.54296875 C41.52699089 70.72879707 41.52699089 70.72879707 41.56648254 68.87797546 C41.5668602 67.75703995 41.56723785 66.63610443 41.56762695 65.48120117 C41.57873001 64.49302902 41.58983307 63.50485687 41.60127258 62.48674011 C41.22216666 59.74292212 41.22216666 59.74292212 38.46452332 58.15742493 C37.65123062 57.7754747 36.83793793 57.39352448 36 57 Z " fill="#92B67F" transform="translate(76,22)"/>
<path d="M0 0 C2.86376055 3.51423124 4 6.39436445 4 11 C4.763125 10.34 5.52625 9.68 6.3125 9 C10.86101197 5.98916466 15.75295018 6.24299988 21 7 C24.94236026 8.36294846 28.04884344 10.04884344 31 13 C30.79038014 18.45011642 29.38866428 21.76416965 26 26 C22.63704668 28.96260173 20.44764511 30.88182489 15.9375 31.25 C12.31958341 31.02029101 10.90613511 30.56019963 7.765625 29.12109375 C4.96607818 28.15956381 3.65053433 27.74252944 0.86938477 28.84326172 C-1.30829284 30.36776652 -3.23333575 32.01085589 -5.1875 33.8125 C-5.85974609 34.37904297 -6.53199219 34.94558594 -7.22460938 35.52929688 C-12.96468916 40.50924925 -17.73324488 46.10648781 -21 53 C-20.53199289 48.94393835 -20.12046792 45.53411321 -18 42 C-17.34 42 -16.68 42 -16 42 C-15.79375 41.4225 -15.5875 40.845 -15.375 40.25 C-13.51518335 37.20666366 -10.95455813 35.92688574 -8 34 C-8 33.34 -8 32.68 -8 32 C-10.97 32.66 -13.94 33.32 -17 34 C-17.66 32.35 -18.32 30.7 -19 29 C-19.33 29 -19.66 29 -20 29 C-20.33 31.97 -20.66 34.94 -21 38 C-24.3 38 -27.6 38 -31 38 C-31 38.99 -31 39.98 -31 41 C-28.36 41.33 -25.72 41.66 -23 42 C-23.375 43.9375 -23.375 43.9375 -24 46 C-24.99 46.495 -24.99 46.495 -26 47 C-26 46.01 -26 45.02 -26 44 C-27.03125 43.773125 -28.0625 43.54625 -29.125 43.3125 C-34.102932 41.87869403 -37.57656148 39.26456128 -40.375 34.8125 C-41.62882078 29.1703065 -42.19093704 23.04482651 -39 18 C-34.9834658 15.9917329 -30.63471072 16.86868054 -26.375 17.75 C-21.42649196 19.58278076 -18.84290732 21.54671151 -16.1875 26.125 C-15 29 -15 29 -15 31 C-7.56166165 26.5190495 -7.56166165 26.5190495 -2 20 C-2 18.68 -2 17.36 -2 16 C-2.66386719 15.92523438 -3.32773438 15.85046875 -4.01171875 15.7734375 C-12.12789804 14.56489693 -12.12789804 14.56489693 -15.0625 11.1875 C-18 6.35483871 -18 6.35483871 -18 3 C-16.89915176 0.43135412 -15.79917522 -0.63363653 -13.26171875 -1.796875 C-8.04627741 -3.45771457 -4.74039925 -3.00833029 0 0 Z M-9 5 C-9 5.66 -9 6.32 -9 7 C-7.68 7.33 -6.36 7.66 -5 8 C-5.33 7.01 -5.66 6.02 -6 5 C-6.99 5 -7.98 5 -9 5 Z M8 19 C8.56362302 21.04836882 8.56362302 21.04836882 10 23 C13.07606709 23.93619433 15.09800619 24.28348377 18.1875 23.3125 C20.3159139 21.77123477 21.60964248 20.22457203 23 18 C23 17.34 23 16.68 23 16 C16.65294928 12.09412263 12.64634557 13.5337111 8 19 Z M-32 24 C-33.43920901 25.22321622 -33.43920901 25.22321622 -33.3125 28.875 C-33.27992841 32.22021517 -33.27992841 32.22021517 -31.375 34.9375 C-28.58862755 36.18403504 -26.02458441 36.65629723 -23 37 C-22.46344993 31.42426641 -22.46344993 31.42426641 -24.6875 26.5625 C-27.2059603 24.86083764 -28.98138625 24.24475247 -32 24 Z " fill="#83B068" transform="translate(76,22)"/>
<path d="M0 0 C0.33 1.65 0.66 3.3 1 5 C-3.29 7.31 -7.58 9.62 -12 12 C-12.33 30.48 -12.66 48.96 -13 68 C-9.7 66.68 -6.4 65.36 -3 64 C0 63.25 0 63.25 3 63 C3.71414062 62.93683594 4.42828125 62.87367188 5.1640625 62.80859375 C12.91947638 62.42697815 20.07367433 64.53683717 27 68 C27 59.75 27 51.5 27 43 C27.33 43 27.66 43 28 43 C28.02469321 47.2358357 28.04285671 51.47163342 28.05493164 55.70751953 C28.05996474 57.1489332 28.06679173 58.59034176 28.07543945 60.03173828 C28.08754983 62.10190085 28.09323847 64.17199601 28.09765625 66.2421875 C28.10289307 67.4885498 28.10812988 68.73491211 28.11352539 70.01904297 C28 73 28 73 27 75 C32.18150772 75.30479457 34.65617337 74.70021655 39 72 C41.14453125 72.41015625 41.14453125 72.41015625 43 73 C41.60922699 73.82113177 40.21211107 74.63152495 38.8125 75.4375 C38.03519531 75.88996094 37.25789063 76.34242188 36.45703125 76.80859375 C33.87771903 78.05929363 31.85852615 78.76486317 29 79 C27.18359375 78.109375 27.18359375 78.109375 25.4375 76.75 C18.3320048 71.95947781 9.91853383 70.1754652 1.453125 71.41796875 C-3.66043071 72.63121684 -8.94401617 74.23656723 -12.9765625 77.6953125 C-15 79 -15 79 -17.62646484 78.58154297 C-18.40973145 78.38963379 -19.19299805 78.19772461 -20 78 C-20.20879841 68.97710984 -20.36857376 59.95505438 -20.46630955 50.93027306 C-20.51322647 46.73926682 -20.576821 42.54991639 -20.67895508 38.35986328 C-20.77696013 34.31374568 -20.83059901 30.26921704 -20.85389519 26.22200394 C-20.87048864 24.6804464 -20.90289655 23.13897321 -20.95157051 21.59809494 C-21.31643375 9.56579364 -21.31643375 9.56579364 -18.11227417 5.75469971 C-15.7780776 4.14548688 -13.63648852 3.03115539 -11 2 C-10.14519547 1.62861908 -9.29039093 1.25723816 -8.40968323 0.87460327 C-5.5021911 -0.18068155 -3.06902852 -0.14274551 0 0 Z " fill="#CBDCC2" transform="translate(43,70)"/>
<path d="M0 0 C2.10839571 2.98539221 1.5596981 5.71922715 1.49609375 9.31640625 C1.52350393 14.588323 1.52350393 14.588323 4.32421875 18.86328125 C6.69799659 20.10850884 6.69799659 20.10850884 9.14453125 20.88671875 C12.2157721 22.34151705 12.90271505 23.89670545 14.37109375 26.94140625 C14.69389343 30.08625793 14.69389343 30.08625793 14.61987305 33.65942383 C14.61055756 34.31364319 14.60124207 34.96786255 14.59164429 35.64190674 C14.55744524 37.79046056 14.50152639 39.93785656 14.4453125 42.0859375 C14.41726097 43.58092327 14.39057252 45.07593518 14.3651886 46.57096863 C14.29490501 50.49547394 14.20616092 54.41935095 14.11352539 58.34338379 C14.02218156 62.35175393 13.94835879 66.36044289 13.87304688 70.36914062 C13.72284452 78.22697939 13.55313202 86.08424085 13.37109375 93.94140625 C8.68798828 95.08886719 8.68798828 95.08886719 5.8359375 93.76171875 C5.00191406 93.20226562 4.16789062 92.6428125 3.30859375 92.06640625 C-1.34401882 88.98378159 -4.59736497 87.806058 -10.17578125 87.84375 C-11.02011719 87.84697266 -11.86445312 87.85019531 -12.734375 87.85351562 C-13.60707031 87.86189453 -14.47976562 87.87027344 -15.37890625 87.87890625 C-16.26707031 87.88341797 -17.15523438 87.88792969 -18.0703125 87.89257812 C-20.25657954 87.90433225 -22.44270804 87.92076376 -24.62890625 87.94140625 C-22.99182792 85.95630567 -22.12794478 85.02293321 -19.54418945 84.60083008 C-18.76390381 84.61654053 -17.98361816 84.63225098 -17.1796875 84.6484375 C-16.33212891 84.65810547 -15.48457031 84.66777344 -14.61132812 84.67773438 C-13.73025391 84.70287109 -12.84917969 84.72800781 -11.94140625 84.75390625 C-11.04873047 84.76744141 -10.15605469 84.78097656 -9.23632812 84.79492188 C-7.03324459 84.83026546 -4.83138043 84.87960132 -2.62890625 84.94140625 C-2.62890625 83.95140625 -2.62890625 82.96140625 -2.62890625 81.94140625 C-9.88890625 81.94140625 -17.14890625 81.94140625 -24.62890625 81.94140625 C-21.17178405 75.02716185 -16.32031113 73.22197545 -9.34765625 70.67578125 C-6.62890625 69.94140625 -6.62890625 69.94140625 -1.62890625 69.94140625 C-1.62890625 47.17140625 -1.62890625 24.40140625 -1.62890625 0.94140625 C-4.26890625 1.60140625 -6.90890625 2.26140625 -9.62890625 2.94140625 C-11.96110109 3.01428734 -14.29759575 3.03854419 -16.62890625 2.94140625 C-13.10733056 -0.58016944 -4.52787206 -2.94257393 0 0 Z M1.37109375 24.94140625 C0.4679305 27.650896 0.22451875 29.34275959 0.16577148 32.13745117 C0.14582626 32.97809616 0.12588104 33.81874115 0.10533142 34.68486023 C0.08026268 36.03968254 0.08026268 36.03968254 0.0546875 37.421875 C0.0339064 38.34986404 0.01312531 39.27785309 -0.00828552 40.23396301 C-0.07367948 43.19886865 -0.13261887 46.16386297 -0.19140625 49.12890625 C-0.23460112 51.13868105 -0.27821572 53.14844688 -0.32226562 55.15820312 C-0.42935052 60.08584657 -0.5306467 65.01357924 -0.62890625 69.94140625 C-1.51731201 70.19825195 -2.40571777 70.45509766 -3.32104492 70.71972656 C-5.07251831 71.23937988 -5.07251831 71.23937988 -6.859375 71.76953125 C-8.01590576 72.10887695 -9.17243652 72.44822266 -10.36401367 72.79785156 C-14.51360123 74.25127773 -17.27800309 76.13599895 -20.62890625 78.94140625 C-17.80394442 79.76745536 -15.55239883 79.95877221 -12.62890625 79.75390625 C-7.38955008 79.65801121 -3.00631193 81.27385473 1.8671875 83.06640625 C4.24370178 84.05136998 4.24370178 84.05136998 6.37109375 83.94140625 C6.48692398 76.69190458 6.57577544 69.44260223 6.63015461 62.19236279 C6.65625391 58.82574479 6.69165444 55.4597596 6.74829102 52.09350586 C6.80879128 48.22362393 6.83727087 44.35464272 6.859375 40.484375 C6.89808464 38.67020332 6.89808464 38.67020332 6.93757629 36.81938171 C6.93795395 35.6984462 6.9383316 34.57751068 6.9387207 33.42260742 C6.94982376 32.43443527 6.96092682 31.44626312 6.97236633 30.42814636 C6.59326041 27.68432837 6.59326041 27.68432837 3.83561707 26.09883118 C3.02232437 25.71688095 2.20903168 25.33493073 1.37109375 24.94140625 Z " fill="#DEE6D8" transform="translate(110.62890625,54.05859375)"/>
<path d="M0 0 C0 22.77 0 45.54 0 69 C-3.96 69.99 -7.92 70.98 -12 72 C-16.38188537 74.39011929 -19.58120204 77.38009628 -23 81 C-22.49597656 80.83757812 -21.99195312 80.67515625 -21.47265625 80.5078125 C-18.10310135 79.8158028 -14.87487902 79.86827981 -11.4375 79.875 C-10.76525391 79.87113281 -10.09300781 79.86726563 -9.40039062 79.86328125 C-6.32500248 79.86938927 -3.93973687 80.02008771 -1 81 C-1 81.99 -1 82.98 -1 84 C-2.26714844 84.02578125 -3.53429687 84.0515625 -4.83984375 84.078125 C-15.33185636 84.3935099 -23.11492821 85.07661881 -32 91 C-35.6875 90.625 -35.6875 90.625 -39 90 C-38.84007568 89.27707764 -38.68015137 88.55415527 -38.51538086 87.80932617 C-38.03173262 85.17297357 -37.83085538 82.72586471 -37.75390625 80.05078125 C-37.72103516 79.11943359 -37.68816406 78.18808594 -37.65429688 77.22851562 C-37.59371698 75.30413716 -37.53635737 73.37965428 -37.48242188 71.45507812 C-37.25179917 65.12383221 -36.44007092 59.17016942 -35 53 C-34.67 53 -34.34 53 -34 53 C-34 62.57 -34 72.14 -34 82 C-33.01 82 -32.02 82 -31 82 C-30.74476562 81.4121875 -30.48953125 80.824375 -30.2265625 80.21875 C-26.00658257 72.58515573 -17.19228923 68.17185702 -9.125 65.75 C-6 65 -6 65 -4 65 C-4 45.2 -4 25.4 -4 5 C-14.1110844 6.78032511 -14.1110844 6.78032511 -17 10 C-18.32 10 -19.64 10 -21 10 C-22.63676257 11.9600281 -22.63676257 11.9600281 -24 14 C-24.66 14 -25.32 14 -26 14 C-25.69186319 10.80308064 -25.34838429 9.3449281 -23.03125 7.05078125 C-15.13977032 1.63147808 -9.53177351 0 0 0 Z " fill="#89B374" transform="translate(109,55)"/>
<path d="M0 0 C7.37743733 0.0832433 13.22717912 1.17639787 18.58203125 6.53125 C18.37241139 11.98136642 16.97069553 15.29541965 13.58203125 19.53125 C8.00967258 24.44023264 4.76258226 24.82728149 -2.60546875 24.40625 C-5.58974436 22.96556522 -6.76678351 20.30288237 -8.41796875 17.53125 C-8.08796875 16.87125 -7.75796875 16.21125 -7.41796875 15.53125 C-8.40796875 15.20125 -9.39796875 14.87125 -10.41796875 14.53125 C-11.1484375 12.68359375 -11.1484375 12.68359375 -11.60546875 10.46875 C-11.76402344 9.73527344 -11.92257813 9.00179687 -12.0859375 8.24609375 C-12.19550781 7.68019531 -12.30507812 7.11429688 -12.41796875 6.53125 C-10.41796875 5.53125 -10.41796875 5.53125 -7.98046875 5.21875 C-5.27385381 4.79531663 -5.27385381 4.79531663 -4.08203125 2.51953125 C-2.41796875 0.53125 -2.41796875 0.53125 0 0 Z M-4.41796875 12.53125 C-3.85434573 14.57961882 -3.85434573 14.57961882 -2.41796875 16.53125 C0.65809834 17.46744433 2.68003744 17.81473377 5.76953125 16.84375 C7.89794515 15.30248477 9.19167373 13.75582203 10.58203125 11.53125 C10.58203125 10.87125 10.58203125 10.21125 10.58203125 9.53125 C4.23498053 5.62537263 0.22837682 7.0649611 -4.41796875 12.53125 Z " fill="#97B985" transform="translate(88.41796875,28.46875)"/>
<path d="M0 0 C4.94850804 1.83278076 7.53209268 3.79671151 10.1875 8.375 C11.375 11.25 11.375 11.25 11.375 13.25 C12.695 12.92 14.015 12.59 15.375 12.25 C14.0625 14.25 14.0625 14.25 12.375 16.25 C11.385 16.25 10.395 16.25 9.375 16.25 C8.715 14.6 8.055 12.95 7.375 11.25 C7.045 11.25 6.715 11.25 6.375 11.25 C6.045 14.22 5.715 17.19 5.375 20.25 C2.075 20.25 -1.225 20.25 -4.625 20.25 C-4.625 21.24 -4.625 22.23 -4.625 23.25 C-1.985 23.58 0.655 23.91 3.375 24.25 C3 26.1875 3 26.1875 2.375 28.25 C1.715 28.58 1.055 28.91 0.375 29.25 C0.375 28.26 0.375 27.27 0.375 26.25 C-0.65625 26.023125 -1.6875 25.79625 -2.75 25.5625 C-7.727932 24.12869403 -11.20156148 21.51456128 -14 17.0625 C-15.25382078 11.4203065 -15.81593704 5.29482651 -12.625 0.25 C-8.6084658 -1.7582671 -4.25971072 -0.88131946 0 0 Z M-5.625 6.25 C-7.06420901 7.47321622 -7.06420901 7.47321622 -6.9375 11.125 C-6.90492841 14.47021517 -6.90492841 14.47021517 -5 17.1875 C-2.21362755 18.43403504 0.35041559 18.90629723 3.375 19.25 C3.91155007 13.67426641 3.91155007 13.67426641 1.6875 8.8125 C-0.8309603 7.11083764 -2.60638625 6.49475247 -5.625 6.25 Z " fill="#CEDDC7" transform="translate(49.625,39.75)"/>
<path d="M0 0 C0.66 0.33 1.32 0.66 2 1 C1.28972656 1.45890625 0.57945313 1.9178125 -0.15234375 2.390625 C-1.07144531 3.00421875 -1.99054688 3.6178125 -2.9375 4.25 C-3.85402344 4.85328125 -4.77054688 5.4565625 -5.71484375 6.078125 C-8.11098219 8.09333887 -8.68276924 8.94918504 -9 12 C-8.34 12 -7.68 12 -7 12 C-6.67 11.01 -6.34 10.02 -6 9 C-4.4375 7.3125 -4.4375 7.3125 -3 6 C-3 6.66 -3 7.32 -3 8 C-2.5153125 7.72285156 -2.030625 7.44570312 -1.53125 7.16015625 C-0.52578125 6.61681641 -0.52578125 6.61681641 0.5 6.0625 C1.47453125 5.52302734 1.47453125 5.52302734 2.46875 4.97265625 C5 4 5 4 13 3 C13 22.8 13 42.6 13 63 C10.03 63.99 7.06 64.98 4 66 C-2.49288183 68.67960203 -6.83350523 72.3107945 -11.8984375 77.171875 C-14 79 -14 79 -16 79 C-16.07613173 71.13466601 -16.12863448 63.26942724 -16.16479492 55.40380859 C-16.17817551 52.72850279 -16.20033385 50.05367851 -16.22631836 47.37841797 C-16.26275084 43.53086249 -16.27973828 39.68363414 -16.29296875 35.8359375 C-16.30845261 34.64197357 -16.32393646 33.44800964 -16.33988953 32.21786499 C-16.34107844 26.33758851 -16.3381333 21.95137189 -13 17 C-13.721875 17.350625 -14.44375 17.70125 -15.1875 18.0625 C-20.75041264 19.91680421 -25.77750866 17.03588645 -31 15 C-30.67 16.32 -30.34 17.64 -30 19 C-28.68 19.33 -27.36 19.66 -26 20 C-26 20.66 -26 21.32 -26 22 C-28.9375 21.25 -28.9375 21.25 -32 20 C-33.0625 18.0625 -33.0625 18.0625 -33 16 C-31.5625 14.25 -31.5625 14.25 -30 13 C-26.27452289 14.21294604 -22.63022016 15.52812198 -19 17 C-18.63390625 16.443125 -18.2678125 15.88625 -17.890625 15.3125 C-13.00208752 8.42199003 -7.18754234 4.33140893 0 0 Z M-6.54296875 13.51171875 C-12.76797739 19.81590079 -15.68368854 24.97269706 -15.67977905 33.94789124 C-15.64881134 35.03887619 -15.61784363 36.12986115 -15.5859375 37.25390625 C-15.57320297 38.96609596 -15.57320297 38.96609596 -15.56021118 40.71287537 C-15.52683615 44.33040919 -15.45158024 47.94564894 -15.375 51.5625 C-15.34488015 54.02666034 -15.31750791 56.49085589 -15.29296875 58.95507812 C-15.22709698 64.97082435 -15.12690706 70.98524823 -15 77 C-14.17548843 76.38151436 -14.17548843 76.38151436 -13.33432007 75.75053406 C-12.61346222 75.2098378 -11.89260437 74.66914154 -11.14990234 74.11206055 C-10.43522797 73.57598679 -9.72055359 73.03991302 -8.98422241 72.4875946 C-4.7185374 69.28956097 -4.7185374 69.28956097 -2.625 67.8125 C-1.97789063 67.34457031 -1.33078125 66.87664062 -0.6640625 66.39453125 C3.29465589 64.3222989 7.72015624 63.28395313 12 62 C12 42.86 12 23.72 12 4 C5.0843283 4 -1.36338105 9.50032993 -6.54296875 13.51171875 Z " fill="#DAE5D4" transform="translate(92,57)"/>
<path d="M0 0 C0.33 0 0.66 0 1 0 C1 18.48 1 36.96 1 56 C4.96 54.68 8.92 53.36 13 52 C16.24387346 51.66668938 19.04524913 51.47379707 22.25 51.5625 C23.35601562 51.55186523 23.35601562 51.55186523 24.484375 51.54101562 C29.89895559 51.60297826 34.02548286 52.87851475 39 55 C38.01 55.33 37.02 55.66 36 56 C36 56.66 36 57.32 36 58 C35.33355469 57.9278125 34.66710938 57.855625 33.98046875 57.78125 C30.989346 57.48004603 27.9969894 57.23542435 25 57 C23.63488281 56.86271484 23.63488281 56.86271484 22.2421875 56.72265625 C15.20914519 56.30231407 10.7520736 58.20395626 4.7265625 61.78515625 C1.53649583 63.20651833 0.29916218 62.81562813 -3 62 C-3.0251057 58.08969115 -3.04304746 54.17941485 -3.05493164 50.26904297 C-3.06231093 48.3004389 -3.07503058 46.33185714 -3.08789062 44.36328125 C-3.10779903 36.5193686 -2.80895594 28.80318717 -2 21 C-1.67 21 -1.34 21 -1 21 C-0.67 14.07 -0.34 7.14 0 0 Z " fill="#9ABC88" transform="translate(28,83)"/>
<path d="M0 0 C0.33 0 0.66 0 1 0 C1 9.57 1 19.14 1 29 C1.99 29 2.98 29 4 29 C4.2475 28.4225 4.495 27.845 4.75 27.25 C6.21502278 24.61295899 7.67502077 22.92641136 10 21 C12.75 20.25 12.75 20.25 15 20 C13.125 25.75 13.125 25.75 12 28 C12.50402344 27.83757812 13.00804688 27.67515625 13.52734375 27.5078125 C16.89689865 26.8158028 20.12512098 26.86827981 23.5625 26.875 C24.23474609 26.87113281 24.90699219 26.86726563 25.59960938 26.86328125 C28.67499752 26.86938927 31.06026313 27.02008771 34 28 C34 28.99 34 29.98 34 31 C32.73285156 31.02578125 31.46570313 31.0515625 30.16015625 31.078125 C19.66814364 31.3935099 11.88507179 32.07661881 3 38 C-0.6875 37.625 -0.6875 37.625 -4 37 C-3.84007568 36.27707764 -3.68015137 35.55415527 -3.51538086 34.80932617 C-3.03173262 32.17297357 -2.83085538 29.72586471 -2.75390625 27.05078125 C-2.72103516 26.11943359 -2.68816406 25.18808594 -2.65429688 24.22851562 C-2.59371698 22.30413716 -2.53635737 20.37965428 -2.48242188 18.45507812 C-2.25179917 12.12383221 -1.44007092 6.17016942 0 0 Z " fill="#7EAF66" transform="translate(74,108)"/>
<path d="M0 0 C0.99 0.66 1.98 1.32 3 2 C3 2.66 3 3.32 3 4 C3.66 4 4.32 4 5 4 C5 25.45 5 46.9 5 69 C-5.125 65.625 -5.125 65.625 -8 62 C-1.25 60.875 -1.25 60.875 1 62 C0.67 41.54 0.34 21.08 0 0 Z " fill="#8AB375" transform="translate(118,78)"/>
<path d="M0 0 C2.10839571 2.98539221 1.5596981 5.71922715 1.49609375 9.31640625 C1.52350393 14.588323 1.52350393 14.588323 4.32421875 18.86328125 C6.69799659 20.10850884 6.69799659 20.10850884 9.14453125 20.88671875 C12.2157721 22.34151705 12.90271505 23.89670545 14.37109375 26.94140625 C14.69389343 30.08625793 14.69389343 30.08625793 14.61987305 33.65942383 C14.61055756 34.31364319 14.60124207 34.96786255 14.59164429 35.64190674 C14.55744524 37.79046056 14.50152639 39.93785656 14.4453125 42.0859375 C14.41726097 43.58092327 14.39057252 45.07593518 14.3651886 46.57096863 C14.29490501 50.49547394 14.20616092 54.41935095 14.11352539 58.34338379 C14.02218156 62.35175393 13.94835879 66.36044289 13.87304688 70.36914062 C13.72284452 78.22697939 13.55313202 86.08424085 13.37109375 93.94140625 C11.015625 94.5625 11.015625 94.5625 8.37109375 94.94140625 C6.05859375 93.00390625 6.05859375 93.00390625 4.37109375 90.94140625 C7.83609375 91.43640625 7.83609375 91.43640625 11.37109375 91.94140625 C11.70109375 70.82140625 12.03109375 49.70140625 12.37109375 27.94140625 C11.71109375 27.94140625 11.05109375 27.94140625 10.37109375 27.94140625 C9.71109375 26.95140625 9.05109375 25.96140625 8.37109375 24.94140625 C7.71109375 25.60140625 7.05109375 26.26140625 6.37109375 26.94140625 C4.06109375 25.62140625 1.75109375 24.30140625 -0.62890625 22.94140625 C-0.62890625 38.12140625 -0.62890625 53.30140625 -0.62890625 68.94140625 C-0.95890625 68.94140625 -1.28890625 68.94140625 -1.62890625 68.94140625 C-1.62890625 46.50140625 -1.62890625 24.06140625 -1.62890625 0.94140625 C-4.26890625 1.60140625 -6.90890625 2.26140625 -9.62890625 2.94140625 C-11.96110109 3.01428734 -14.29759575 3.03854419 -16.62890625 2.94140625 C-13.10733056 -0.58016944 -4.52787206 -2.94257393 0 0 Z " fill="#93B77D" transform="translate(110.62890625,54.05859375)"/>
<path d="M0 0 C0.99 0 1.98 0 3 0 C3.33 1.98 3.66 3.96 4 6 C6.97 5.01 9.94 4.02 13 3 C13 4.32 13 5.64 13 7 C11.50390625 8.4140625 11.50390625 8.4140625 9.5625 9.625 C6.76008797 11.32383142 6.76008797 11.32383142 5 14 C4.34 14 3.68 14 3 14 C1.515 19.445 1.515 19.445 0 25 C-0.66 25 -1.32 25 -2 25 C-2 29.29 -2 33.58 -2 38 C-3.485 38.495 -3.485 38.495 -5 39 C-6.44415307 32.1402729 -7.38024622 24.38490952 -4 18 C-3.443125 16.8553125 -3.443125 16.8553125 -2.875 15.6875 C-2.58625 15.130625 -2.2975 14.57375 -2 14 C-4.64 13.67 -7.28 13.34 -10 13 C-10 12.01 -10 11.02 -10 10 C-6.7 10 -3.4 10 0 10 C0 6.7 0 3.4 0 0 Z " fill="#83B06D" transform="translate(55,50)"/>
<path d="M0 0 C7.29728872 -0.48290881 12.85217836 -0.22181235 19 4 C19.66 4.66 20.32 5.32 21 6 C20.79038014 11.45011642 19.38866428 14.76416965 16 19 C11.11208274 23.30602235 8.56210689 24.33941932 2 24 C0.68 23.34 -0.64 22.68 -2 22 C1.63 21.67 5.26 21.34 9 21 C9 20.01 9 19.02 9 18 C8.67 18.33 8.34 18.66 8 19 C6.00390625 18.94921875 6.00390625 18.94921875 3.5625 18.6875 C2.35787109 18.56955078 2.35787109 18.56955078 1.12890625 18.44921875 C-1 18 -1 18 -3 16 C-2.86895515 12.39626668 -2.74035058 9.91803472 -0.4375 7.0625 C3.04143738 5.54604012 6.30140029 5.4326849 10 6 C12.8125 7.4375 12.8125 7.4375 15 9 C15.99 9.33 16.98 9.66 18 10 C16.28087721 5.70385155 16.28087721 5.70385155 12.9375 2.6875 C8.66389144 1.68729374 4.37140923 1.32255058 0 1 C0 0.67 0 0.34 0 0 Z M-2 12 C-1.43637698 14.04836882 -1.43637698 14.04836882 0 16 C3.07606709 16.93619433 5.09800619 17.28348377 8.1875 16.3125 C10.3159139 14.77123477 11.60964248 13.22457203 13 11 C13 10.34 13 9.68 13 9 C6.65294928 5.09412263 2.64634557 6.5337111 -2 12 Z " fill="#A6C495" transform="translate(86,29)"/>
<path d="M0 0 C1 1 1 1 1.09765625 3.28515625 C1.08605469 4.20167969 1.07445313 5.11820313 1.0625 6.0625 C1.05347656 6.98160156 1.04445313 7.90070312 1.03515625 8.84765625 C1.02355469 9.55792969 1.01195313 10.26820312 1 11 C-3.0236247 13.23634498 -6.45475383 13.90531597 -11 13 C-14.69984527 9.77449387 -15.55278157 6.80759817 -16 2 C-9.72294853 -3.40523877 -7.56477911 -3.71102371 0 0 Z M-9 5 C-9 5.66 -9 6.32 -9 7 C-7.68 7.33 -6.36 7.66 -5 8 C-5.33 7.01 -5.66 6.02 -6 5 C-6.99 5 -7.98 5 -9 5 Z " fill="#AFC9A1" transform="translate(76,22)"/>
<path d="M0 0 C0.9237463 3.11042698 1.0781003 5.82621889 1 9.0625 C0.9254869 12.15945057 1.00691998 14.02075995 2 17 C1.67 17.99 1.34 18.98 1 20 C1.66 19.67 2.32 19.34 3 19 C3.46954261 15.95418731 3.46954261 15.95418731 3.625 12.4375 C3.69976562 11.23996094 3.77453125 10.04242188 3.8515625 8.80859375 C3.90054688 7.88175781 3.94953125 6.95492187 4 6 C4.66 6 5.32 6 6 6 C5.938125 7.11375 5.87625 8.2275 5.8125 9.375 C5.82596557 16.9695843 8.21369772 24.08750895 13 30 C15.27227054 32.00176215 17.29666103 33.64833052 20 35 C20.08701039 31.39598519 20.14039388 27.79223988 20.1875 24.1875 C20.21263672 23.16333984 20.23777344 22.13917969 20.26367188 21.08398438 C20.27333984 20.10107422 20.28300781 19.11816406 20.29296875 18.10546875 C20.3086792 17.19949951 20.32438965 16.29353027 20.34057617 15.36010742 C19.93875073 12.57555794 19.16311438 11.72400465 17 10 C18.65 10.66 20.3 11.32 22 12 C22 20.25 22 28.5 22 37 C15.01531304 35.60306261 12.88042766 34.31319448 8.75 28.5 C8.04359375 27.5203125 7.3371875 26.540625 6.609375 25.53125 C5 23 5 23 5 21 C4.34 21 3.68 21 3 21 C2.87638579 26.68625345 4.6613244 29.12098259 8.5 33.3125 C9.3146875 34.15425781 10.129375 34.99601562 10.96875 35.86328125 C13 38 13 38 14 40 C6.84191512 36.7506062 2.5478149 31.26420884 -0.2890625 24.05078125 C-3.04468464 16.10187124 -2.74755513 7.89922099 0 0 Z " fill="#E4EAE0" transform="translate(49,69)"/>
<path d="M0 0 C5.55555556 0.75757576 5.55555556 0.75757576 8.0625 2.125 C10.71654322 3.32360017 12.23522594 2.76031287 15 2 C15.763125 1.814375 16.52625 1.62875 17.3125 1.4375 C17.869375 1.293125 18.42625 1.14875 19 1 C16.25 7.75 16.25 7.75 14 10 C13.77184905 12.18303602 13.77184905 12.18303602 13.91015625 14.68359375 C13.93013672 15.61107422 13.95011719 16.53855469 13.97070312 17.49414062 C14.03178326 19.4526036 14.09687217 21.41094575 14.16601562 23.36914062 C14.18470703 24.29791016 14.20339844 25.22667969 14.22265625 26.18359375 C14.25109619 27.03493896 14.27953613 27.88628418 14.30883789 28.76342773 C14 31 14 31 11 34 C11 25.75 11 17.5 11 9 C9.02 8.34 7.04 7.68 5 7 C5 6.34 5 5.68 5 5 C3.35 4.67 1.7 4.34 0 4 C0 2.68 0 1.36 0 0 Z " fill="#7CAE63" transform="translate(61,72)"/>
<path d="M0 0 C0 -0.66 0 -1.32 0 -2 C2.31 -1.67 4.62 -1.34 7 -1 C6.67 0.65 6.34 2.3 6 4 C11.18150772 4.30479457 13.65617337 3.70021655 18 1 C20.14453125 1.41015625 20.14453125 1.41015625 22 2 C20.60922699 2.82113177 19.21211107 3.63152495 17.8125 4.4375 C16.64654297 5.11619141 16.64654297 5.11619141 15.45703125 5.80859375 C12.87771903 7.05929363 10.85852615 7.76486317 8 8 C6.18359375 7.109375 6.18359375 7.109375 4.4375 5.75 C-2.67218427 0.95665354 -11.07726871 -0.81539648 -19.546875 0.4140625 C-25.35785645 1.80203578 -30.69675733 4.29994723 -36 7 C-27.71588396 -2.62026379 -11.62905972 -5.81452986 0 0 Z " fill="#B7CEA9" transform="translate(64,141)"/>
<path d="M0 0 C1.60488281 -0.03867187 1.60488281 -0.03867187 3.2421875 -0.078125 C6.125 0.25 6.125 0.25 8.0078125 1.640625 C9.125 3.25 9.125 3.25 9.125 5.25 C5.495 5.25 1.865 5.25 -1.875 5.25 C-2.15715625 10.79907289 -2.05595227 13.54772274 1.125 18.25 C0.795 18.91 0.465 19.57 0.125 20.25 C-1.195 20.25 -2.515 20.25 -3.875 20.25 C-7.16977771 16.36156864 -7.22881074 12.96215331 -7.125 8 C-7.10953125 6.75734375 -7.0940625 5.5146875 -7.078125 4.234375 C-6.73004736 -0.8796888 -4.64945613 0.06689865 0 0 Z " fill="#8DB478" transform="translate(43.875,40.75)"/>
<path d="M0 0 C1.32 0.33 2.64 0.66 4 1 C4 20.47 4 39.94 4 60 C2.68 59.34 1.36 58.68 0 58 C0.66 58 1.32 58 2 58 C1.89255274 50.73295359 1.77993044 43.46600696 1.66066074 36.19914436 C1.60544531 32.82501633 1.55202757 29.4508796 1.50268555 26.07666016 C1.44510333 22.19945734 1.38137434 18.3223977 1.31640625 14.4453125 C1.29969376 13.23070343 1.28298126 12.01609436 1.26576233 10.76467896 C1.24581711 9.64366791 1.22587189 8.52265686 1.20532227 7.36767578 C1.18977798 6.37728302 1.1742337 5.38689026 1.15821838 4.3664856 C1.15192022 1.98171457 1.15192022 1.98171457 0 0 Z " fill="#E1EADD" transform="translate(115,80)"/>
<path d="M0 0 C0.33 0 0.66 0 1 0 C2.24063784 7.65874066 2.11179358 15.25711646 2.0625 23 C2.05747487 24.36067544 2.05291376 25.72135267 2.04882812 27.08203125 C2.03710459 30.38806725 2.02069427 33.69401001 2 37 C2.99 37 3.98 37 5 37 C4.505 39.475 4.505 39.475 4 42 C2.35 41.67 0.7 41.34 -1 41 C-1.0251057 37.08969115 -1.04304746 33.17941485 -1.05493164 29.26904297 C-1.06231093 27.3004389 -1.07503058 25.33185714 -1.08789062 23.36328125 C-1.10779903 15.5193686 -0.80895594 7.80318717 0 0 Z " fill="#7FAE67" transform="translate(26,104)"/>
<path d="M0 0 C0 3 0 3 -1.97558594 5.45361328 C-5.18774419 10.0700063 -4.49361448 15.33162265 -4.390625 20.7421875 C-4.38496521 21.86569611 -4.37930542 22.98920471 -4.37347412 24.14675903 C-4.351144 27.72327891 -4.30095146 31.29878463 -4.25 34.875 C-4.22993076 37.304673 -4.21168073 39.73436175 -4.1953125 42.1640625 C-4.15129017 48.10971905 -4.08441071 54.05478705 -4 60 C-3.39526855 59.452229 -2.79053711 58.90445801 -2.16748047 58.34008789 C-1.36713379 57.62071045 -0.56678711 56.90133301 0.2578125 56.16015625 C1.04816895 55.44738525 1.83852539 54.73461426 2.65283203 54.00024414 C5.6537886 51.44284481 8.41766212 49.64787542 12 48 C13.485 48.495 13.485 48.495 15 49 C13 51 13 51 10 52.0625 C5.18891595 53.98693362 1.82424274 57.59601807 -1.86328125 61.13671875 C-4 63 -4 63 -6 63 C-6.152397 55.15316715 -6.25732043 47.30671725 -6.32958984 39.45874023 C-6.35633253 36.78973952 -6.40062445 34.12267587 -6.45263672 31.45385742 C-6.52559523 27.61352149 -6.55949297 23.77449736 -6.5859375 19.93359375 C-6.61690521 18.74479111 -6.64787292 17.55598846 -6.67977905 16.3311615 C-6.6820196 10.79075729 -6.65192379 7.0253145 -2.96337891 2.69165039 C-2.00374045 1.76438184 -1.02515792 0.85427405 0 0 Z " fill="#E7ECE3" transform="translate(82,73)"/>
<path d="M0 0 C0.99 0 1.98 0 3 0 C3 0.66 3 1.32 3 2 C3.75603516 1.75636719 3.75603516 1.75636719 4.52734375 1.5078125 C7.89689865 0.8158028 11.12512098 0.86827981 14.5625 0.875 C15.23474609 0.87113281 15.90699219 0.86726562 16.59960938 0.86328125 C19.67499752 0.86938927 22.06026313 1.02008771 25 2 C25 2.99 25 3.98 25 5 C24.16021606 5.029729 24.16021606 5.029729 23.3034668 5.06005859 C20.76434146 5.15537783 18.22603112 5.26502753 15.6875 5.375 C14.36588867 5.42140625 14.36588867 5.42140625 13.01757812 5.46875 C12.17001953 5.50742188 11.32246094 5.54609375 10.44921875 5.5859375 C9.27879028 5.63306885 9.27879028 5.63306885 8.0847168 5.68115234 C5.69844232 5.89587889 5.69844232 5.89587889 3 8 C2.01 8 1.02 8 0 8 C-1.09658936 4.71023192 -0.79953138 3.28696233 0 0 Z " fill="#87B271" transform="translate(83,134)"/>
<path d="M0 0 C3.02615132 0.60790236 5.1619395 1.54296412 7.6875 3.3125 C8.28949219 3.72113281 8.89148438 4.12976563 9.51171875 4.55078125 C12.02766199 7.00068924 11.98782505 9.55812583 12.08229065 12.9866333 C12.06230515 14.15023376 12.04231964 15.31383423 12.02172852 16.51269531 C12.0073172 17.47917496 12.0073172 17.47917496 11.99261475 18.46517944 C11.95974041 20.58627654 11.91936464 22.70716015 11.87890625 24.828125 C11.8545938 26.30213681 11.83075081 27.77615642 11.80735779 29.25018311 C11.7446287 33.12346315 11.67553064 36.9966043 11.60510254 40.86975098 C11.53431794 44.82456149 11.46956164 48.77947022 11.40429688 52.734375 C11.27542866 60.48969198 11.13983139 68.24487212 11 76 C8.64453125 76.62109375 8.64453125 76.62109375 6 77 C3.6875 75.0625 3.6875 75.0625 2 73 C4.31 73.33 6.62 73.66 9 74 C9.20883455 65.36827731 9.36859087 56.73742791 9.46630955 48.10372734 C9.51321936 44.09428364 9.57679843 40.08657179 9.67895508 36.078125 C9.77698922 32.20706407 9.83060435 28.33766459 9.85389519 24.46545792 C9.87048376 22.99087484 9.9028826 21.51637959 9.95157051 20.04250717 C10.48500545 11.79330563 10.48500545 11.79330563 6.93649292 4.75982666 C4.67878258 3.26464216 2.46245942 2.11098512 0 1 C0 0.67 0 0.34 0 0 Z " fill="#D0D8C9" transform="translate(113,72)"/>
<path d="M0 0 C0.99 0.33 1.98 0.66 3 1 C2.01 1.66 1.02 2.32 0 3 C0.60637174 8.68280449 0.60637174 8.68280449 4 13 C7.92347736 13.58155927 11.24781362 13.25072879 15 12 C15.33 9.36 15.66 6.72 16 4 C18.62386487 7.06117568 19 7.73173127 19 12 C20.32 11.01 21.64 10.02 23 9 C23.66 9.33 24.32 9.66 25 10 C21.67692308 13.93846154 21.67692308 13.93846154 18.25 14.25 C17.5075 14.1675 16.765 14.085 16 14 C16.061875 15.11375 16.12375 16.2275 16.1875 17.375 C16.0946875 19.169375 16.0946875 19.169375 16 21 C15.01 21.66 14.02 22.32 13 23 C13 21.02 13 19.04 13 17 C12.33613281 16.92523438 11.67226562 16.85046875 10.98828125 16.7734375 C2.87210196 15.56489693 2.87210196 15.56489693 -0.0625 12.1875 C-3 7.35483871 -3 7.35483871 -3 4 C-1.5625 1.6875 -1.5625 1.6875 0 0 Z " fill="#CBDAC3" transform="translate(61,21)"/>
<path d="M0 0 C2.5 1.3125 2.5 1.3125 5 3 C5 3.99 5 4.98 5 6 C5.82725739 8.82646274 6.36557404 10.52418053 8.75 12.3125 C11.58768151 13.17956935 14.04595778 13.12570392 17 13 C17.99 13 18.98 13 20 13 C19.34 14.32 18.68 15.64 18 17 C14.29013428 17.28783441 10.70001295 17.45251957 7 17 C4.3125 14.5 4.3125 14.5 3 12 C3.33 11.34 3.66 10.68 4 10 C3.01 9.67 2.02 9.34 1 9 C0.234375 7.1875 0.234375 7.1875 -0.25 5 C-0.42015625 4.278125 -0.5903125 3.55625 -0.765625 2.8125 C-0.84296875 2.214375 -0.9203125 1.61625 -1 1 C-0.67 0.67 -0.34 0.34 0 0 Z " fill="#7CAD65" transform="translate(77,34)"/>
<path d="M0 0 C1.875 0.125 1.875 0.125 4 1 C5.25 4.0625 5.25 4.0625 6 7 C8.31 7 10.62 7 13 7 C13 5.35 13 3.7 13 2 C14.32 2.33 15.64 2.66 17 3 C17 4.98 17 6.96 17 9 C13.29501655 11.46998896 9.30402715 11.85727029 5 11 C1.30015473 7.77449387 0.44721843 4.80759817 0 0 Z " fill="#83B06D" transform="translate(60,24)"/>
<path d="M0 0 C4.94850804 1.83278076 7.53209268 3.79671151 10.1875 8.375 C11.375 11.25 11.375 11.25 11.375 13.25 C12.695 12.92 14.015 12.59 15.375 12.25 C14.385 13.735 14.385 13.735 13.375 15.25 C12.385 15.25 11.395 15.25 10.375 15.25 C10.15585937 14.64671875 9.93671875 14.0434375 9.7109375 13.421875 C8.1753589 9.55171755 6.8069595 6.69275849 3.875 3.6875 C-1.26560711 1.57617922 -6.14117954 1.93055415 -11.625 2.25 C-11.67928973 4.47889496 -11.71792338 6.70817471 -11.75 8.9375 C-11.78480469 10.79955078 -11.78480469 10.79955078 -11.8203125 12.69921875 C-11.63532021 16.06237857 -11.08267895 18.2485587 -9.625 21.25 C-12.80765812 18.27267466 -14.47079537 16.3981064 -14.79296875 11.91015625 C-14.79941406 11.05292969 -14.80585937 10.19570313 -14.8125 9.3125 C-14.82667969 8.45785156 -14.84085938 7.60320313 -14.85546875 6.72265625 C-14.60857294 4.07375715 -14.04913681 2.48364615 -12.625 0.25 C-8.6084658 -1.7582671 -4.25971072 -0.88131946 0 0 Z " fill="#E7EDE3" transform="translate(49.625,39.75)"/>
<path d="M0 0 C0.66 0 1.32 0 2 0 C2 0.66 2 1.32 2 2 C1.01 2.495 1.01 2.495 0 3 C-0.33 24.45 -0.66 45.9 -1 68 C0.32 68.66 1.64 69.32 3 70 C1.0625 70.5625 1.0625 70.5625 -1 71 C-2.84601312 69.15398688 -2.13741323 66.14694509 -2.14526367 63.67602539 C-2.14862228 63.01584915 -2.1519809 62.35567291 -2.15544128 61.67549133 C-2.16497695 59.48286075 -2.1668957 57.29030631 -2.16796875 55.09765625 C-2.17117955 53.5792996 -2.17454349 52.06094327 -2.17805481 50.54258728 C-2.18405265 47.35561404 -2.18589404 44.16866794 -2.18530273 40.98168945 C-2.18520108 36.891304 -2.19885343 32.80109203 -2.21607494 28.71074772 C-2.22717571 25.57355444 -2.22922254 22.43640334 -2.22869301 19.29919243 C-2.22987603 17.7908614 -2.23431575 16.28252939 -2.24202538 14.77421761 C-2.25178662 12.66714341 -2.24896282 10.56044902 -2.24291992 8.45336914 C-2.24434494 7.25281387 -2.24576996 6.05225861 -2.24723816 4.81532288 C-2 2 -2 2 0 0 Z " fill="#9EBD8C" transform="translate(26,77)"/>
<path d="M0 0 C1.32 0.33 2.64 0.66 4 1 C4.33 1.66 4.66 2.32 5 3 C4.34 3 3.68 3 3 3 C1.86695118 5.26609764 1.86450256 6.53460045 1.84228516 9.05078125 C1.83202301 9.88504639 1.82176086 10.71931152 1.81118774 11.57885742 C1.80388641 12.48095947 1.79658508 13.38306152 1.7890625 14.3125 C1.7610043 16.21094628 1.73233991 18.10938367 1.703125 20.0078125 C1.66176861 23.01008962 1.6248933 26.01219908 1.59863281 29.01464844 C1.57113274 31.90594947 1.5252729 34.79648921 1.4765625 37.6875 C1.47330963 38.58960205 1.47005676 39.4917041 1.46670532 40.42114258 C1.45013885 41.25540771 1.43357239 42.08967285 1.41650391 42.94921875 C1.40841705 43.68487061 1.4003302 44.42052246 1.39199829 45.1784668 C1 47 1 47 -2 49 C-4.26171875 49.4140625 -4.26171875 49.4140625 -6.6875 49.625 C-7.49574219 49.69976562 -8.30398437 49.77453125 -9.13671875 49.8515625 C-9.75160156 49.90054688 -10.36648437 49.94953125 -11 50 C-9 48 -9 48 -1 46 C-0.67 30.82 -0.34 15.64 0 0 Z " fill="#E7EDE4" transform="translate(110,77)"/>
<path d="M0 0 C0.66 0 1.32 0 2 0 C3.69140625 2.08203125 3.69140625 2.08203125 5.5625 4.8125 C6.18253906 5.70582031 6.80257812 6.59914063 7.44140625 7.51953125 C9 10 9 10 10 13 C10.66 13.33 11.32 13.66 12 14 C11.01 14.99 10.02 15.98 9 17 C7.87187697 15.89902432 6.74762189 14.79408444 5.625 13.6875 C4.99851562 13.07261719 4.37203125 12.45773438 3.7265625 11.82421875 C0.92556349 8.86479219 0.01563952 7.46136598 -0.125 3.3125 C-0.08375 2.219375 -0.0425 1.12625 0 0 Z " fill="#86B26F" transform="translate(52,90)"/>
<path d="M0 0 C3.1744176 1.09462676 3.98914157 1.98177335 5.75 4.9375 C7 8 7 8 7 11 C7.66 11.33 8.32 11.66 9 12 C8.01 12 7.02 12 6 12 C5.34 10.35 4.68 8.7 4 7 C3.01 7.33 2.02 7.66 1 8 C0.67 7.01 0.34 6.02 0 5 C-2.10584438 4.19436362 -2.10584438 4.19436362 -4.5625 3.8125 C-5.38878906 3.65394531 -6.21507812 3.49539062 -7.06640625 3.33203125 C-7.70449219 3.22246094 -8.34257813 3.11289062 -9 3 C-9.33 5.64 -9.66 8.28 -10 11 C-10.66 10.67 -11.32 10.34 -12 10 C-12.09765625 3.84765625 -12.09765625 3.84765625 -12 2 C-11 1 -11 1 -9.00390625 0.8671875 C-8.19824219 0.86976562 -7.39257812 0.87234375 -6.5625 0.875 C-5.35787109 0.87113281 -5.35787109 0.87113281 -4.12890625 0.8671875 C-2 1 -2 1 0 2 C0 1.34 0 0.68 0 0 Z " fill="#94BB86" transform="translate(53,44)"/>
<path d="M0 0 C2.475 0.495 2.475 0.495 5 1 C4.01 2.485 4.01 2.485 3 4 C4.32 5.32 5.64 6.64 7 8 C6.24783203 7.67515625 6.24783203 7.67515625 5.48046875 7.34375 C-3.46858521 4.05074207 -12.61528814 4.73984885 -22 5 C-20.36292167 3.01489942 -19.49903853 2.08152696 -16.9152832 1.65942383 C-16.13499756 1.67513428 -15.35471191 1.69084473 -14.55078125 1.70703125 C-13.70322266 1.71669922 -12.85566406 1.72636719 -11.98242188 1.73632812 C-11.10134766 1.76146484 -10.22027344 1.78660156 -9.3125 1.8125 C-8.41982422 1.82603516 -7.52714844 1.83957031 -6.60742188 1.85351562 C-4.40433834 1.88885921 -2.20247418 1.93819507 0 2 C0 1.34 0 0.68 0 0 Z " fill="#C5D7BB" transform="translate(108,137)"/>
<path d="M0 0 C1.485 0.99 1.485 0.99 3 2 C3 2.66 3 3.32 3 4 C3.66 4.33 4.32 4.66 5 5 C4.93433838 5.72598389 4.86867676 6.45196777 4.80102539 7.19995117 C3.98374127 16.9000405 3.68218175 26.58415329 3.4375 36.3125 C3.39417711 37.93946106 3.35055916 39.56641429 3.30664062 41.19335938 C3.20103469 45.12882453 3.09938936 49.06437315 3 53 C2.67 53 2.34 53 2 53 C1.98969254 52.39500671 1.97938507 51.79001343 1.96876526 51.16668701 C1.86062416 44.87257242 1.74603221 38.57859877 1.62768555 32.28466797 C1.58436114 29.9354141 1.54268427 27.58612925 1.50268555 25.23681641 C1.44492285 21.8609076 1.38124532 18.48515439 1.31640625 15.109375 C1.29969376 14.05820496 1.28298126 13.00703491 1.26576233 11.92401123 C1.24581711 10.94329651 1.22587189 9.96258179 1.20532227 8.95214844 C1.18977798 8.09055115 1.1742337 7.22895386 1.15821838 6.34124756 C1.00732208 4.10834895 0.61837728 2.14579455 0 0 Z " fill="#7CAD66" transform="translate(118,78)"/>
<path d="M0 0 C0.804375 0.12375 1.60875 0.2475 2.4375 0.375 C3.0975 1.365 3.7575 2.355 4.4375 3.375 C3.77621094 3.08753906 3.11492187 2.80007812 2.43359375 2.50390625 C-2.38840507 2.29644085 -4.95818058 5.29027897 -8.5 8.3125 C-9.19029297 8.87001953 -9.88058594 9.42753906 -10.59179688 10.00195312 C-16.51561779 14.92630473 -21.24588917 20.3863926 -24.5625 27.375 C-24.09449289 23.31893835 -23.68296792 19.90911321 -21.5625 16.375 C-20.9025 16.375 -20.2425 16.375 -19.5625 16.375 C-19.35496094 15.80910156 -19.14742187 15.24320313 -18.93359375 14.66015625 C-17.04492432 11.51237387 -14.59879079 9.94281558 -11.625 7.8125 C-7.5475361 4.93591497 -7.5475361 4.93591497 -3.84375 1.62109375 C-2.5625 0.375 -2.5625 0.375 0 0 Z " fill="#E2E9DE" transform="translate(79.5625,47.625)"/>
<path d="M0 0 C3 1.5 3 1.5 5 3 C4.03567924 4.68756133 3.0268343 6.3497306 2 8 C1.46375 8.94875 0.9275 9.8975 0.375 10.875 C-2 13 -2 13 -4.1875 13.16015625 C-10.40806878 12.59193122 -10.40806878 12.59193122 -13 10 C-12.86895515 6.39626668 -12.74035058 3.91803472 -10.4375 1.0625 C-6.95952601 -0.45353995 -3.69735928 -0.57107727 0 0 Z M-12 6 C-11.43637698 8.04836882 -11.43637698 8.04836882 -10 10 C-6.92393291 10.93619433 -4.90199381 11.28348377 -1.8125 10.3125 C0.3159139 8.77123477 1.60964248 7.22457203 3 5 C3 4.34 3 3.68 3 3 C-3.34705072 -0.90587737 -7.35365443 0.5337111 -12 6 Z " fill="#E2EADE" transform="translate(96,35)"/>
<path d="M0 0 C2.1945702 3.10897445 1.98122742 6.49859181 2.09375 10.1796875 C2.14499023 11.30407227 2.14499023 11.30407227 2.19726562 12.45117188 C2.27959294 14.29765588 2.34460281 16.14489744 2.40625 17.9921875 C1.41625 17.9921875 0.42625 17.9921875 -0.59375 17.9921875 C-0.92375 12.7121875 -1.25375 7.4321875 -1.59375 1.9921875 C-7.07200081 1.5449739 -7.07200081 1.5449739 -9.59375 2.9921875 C-11.9267366 3.03241141 -14.26081666 3.03538997 -16.59375 2.9921875 C-13.08872102 -0.51284148 -4.54173152 -2.87197728 0 0 Z " fill="#E0E8DB" transform="translate(110.59375,54.0078125)"/>
<path d="M0 0 C0.33 0 0.66 0 1 0 C1 8.58 1 17.16 1 26 C-0.98 26 -2.96 26 -5 26 C-5.33 26.99 -5.66 27.98 -6 29 C-3.525 29.99 -3.525 29.99 -1 31 C-1.66 31.33 -2.32 31.66 -3 32 C-5.5625 30.875 -5.5625 30.875 -8 29 C-8.8125 26.3125 -8.8125 26.3125 -9 24 C-4.98843085 22.51423365 -4.51869696 23.19252122 0 25 C0 16.75 0 8.5 0 0 Z " fill="#9EB993" transform="translate(71,81)"/>
<path d="M0 0 C0 1.32 0 2.64 0 4 C-1.4562545 4.67119549 -2.91507867 5.33681807 -4.375 6 C-5.59316406 6.556875 -5.59316406 6.556875 -6.8359375 7.125 C-9 8 -9 8 -11 8 C-11 7.34 -11 6.68 -11 6 C-11.99 5.67 -12.98 5.34 -14 5 C-12.61217515 4.1533966 -11.21430603 3.32324661 -9.8125 2.5 C-9.03519531 2.0359375 -8.25789063 1.571875 -7.45703125 1.09375 C-4.75896614 -0.10729647 -2.9193018 -0.20741043 0 0 Z " fill="#95B882" transform="translate(42,71)"/>
<path d="M0 0 C1.30130859 0.06574219 1.30130859 0.06574219 2.62890625 0.1328125 C5.0625 0.3125 5.0625 0.3125 9 1 C9.66 1.99 10.32 2.98 11 4 C10.24976563 3.84402344 9.49953125 3.68804687 8.7265625 3.52734375 C-4.26285137 1.05706479 -13.32577848 3.05627534 -25 9 C-18.07183476 0.95438876 -10.3283638 -0.74091562 0 0 Z " fill="#DFE8D9" transform="translate(53,139)"/>
<path d="M0 0 C7.29728872 -0.48290881 12.85217836 -0.22181235 19 4 C19.66 4.66 20.32 5.32 21 6 C20.75599149 12.34422126 18.52409613 16.29561129 14.25 20.875 C13.8375 21.24625 13.425 21.6175 13 22 C12.34 21.67 11.68 21.34 11 21 C11.75796875 20.12988281 11.75796875 20.12988281 12.53125 19.2421875 C16.70523363 14.41398421 16.70523363 14.41398421 18.4375 8.4375 C18.293125 7.633125 18.14875 6.82875 18 6 C11.91026866 2.50404312 7.00004889 1.28688725 0 1 C0 0.67 0 0.34 0 0 Z " fill="#EAEEE7" transform="translate(86,29)"/>
<path d="M0 0 C0.33 0 0.66 0 1 0 C1 4.29 1 8.58 1 13 C1.66 13 2.32 13 3 13 C3 10.03 3 7.06 3 4 C3.33 4 3.66 4 4 4 C4.103125 5.216875 4.20625 6.43375 4.3125 7.6875 C4.75794789 11.44388896 5.93610149 13.81033867 8 17 C7.67 17.66 7.34 18.32 7 19 C5.68 19 4.36 19 3 19 C-0.32822981 15.08839508 -0.32748242 11.68020616 -0.1875 6.6875 C-0.14689453 4.80611328 -0.14689453 4.80611328 -0.10546875 2.88671875 C-0.07066406 1.93410156 -0.03585938 0.98148438 0 0 Z " fill="#8EB57A" transform="translate(37,42)"/>
<path d="M0 0 C0.99 0.33 1.98 0.66 3 1 C3.08089542 3.77141717 3.14044062 6.54047819 3.1875 9.3125 C3.21263672 10.09818359 3.23777344 10.88386719 3.26367188 11.69335938 C3.27333984 12.45068359 3.28300781 13.20800781 3.29296875 13.98828125 C3.3086792 14.68477783 3.32438965 15.38127441 3.34057617 16.09887695 C3 18 3 18 0 21 C0 14.07 0 7.14 0 0 Z " fill="#80AF6B" transform="translate(72,85)"/>
<path d="M0 0 C4.84659077 0.59104765 8.60748167 1.97944157 13 4 C12.67 4.66 12.34 5.32 12 6 C9.525 5.01 9.525 5.01 7 4 C7 4.66 7 5.32 7 6 C8.32 6.66 9.64 7.32 11 8 C10.01 8.495 10.01 8.495 9 9 C6.875 8.0625 6.875 8.0625 5 7 C5 6.34 5 5.68 5 5 C3.35 4.67 1.7 4.34 0 4 C0 2.68 0 1.36 0 0 Z " fill="#92B77E" transform="translate(61,72)"/>
<path d="M0 0 C0.66 0 1.32 0 2 0 C2 5.61 2 11.22 2 17 C1.67 16.34 1.34 15.68 1 15 C0.34 15 -0.32 15 -1 15 C-1 16.65 -1 18.3 -1 20 C-3.86299506 17.13700494 -3.99421225 15.34147716 -4.0625 11.3125 C-4.041875 10.219375 -4.02125 9.12625 -4 8 C-3.01 9.485 -3.01 9.485 -2 11 C-2.33 11.99 -2.66 12.98 -3 14 C-2.34 13.67 -1.68 13.34 -1 13 C-0.53045739 9.95418731 -0.53045739 9.95418731 -0.375 6.4375 C-0.30023438 5.23996094 -0.22546875 4.04242188 -0.1484375 2.80859375 C-0.09945312 1.88175781 -0.05046875 0.95492187 0 0 Z " fill="#B5CEA7" transform="translate(53,75)"/>
<path d="M0 0 C2.27734375 0.0234375 2.27734375 0.0234375 4.9375 0.375 C7.67883607 0.72220899 10.23184386 1 13 1 C12.34 2.32 11.68 3.64 11 5 C9.20906809 5.08086147 7.41710372 5.13912702 5.625 5.1875 C4.12839844 5.23970703 4.12839844 5.23970703 2.6015625 5.29296875 C1.74304688 5.19628906 0.88453125 5.09960938 0 5 C-0.66 4.01 -1.32 3.02 -2 2 C-1.34 1.34 -0.68 0.68 0 0 Z " fill="#88AF71" transform="translate(84,46)"/>
<path d="M0 0 C1.32 0.33 2.64 0.66 4 1 C4 2.98 4 4.96 4 7 C0.36576791 9.32590854 -2.77088331 9.16265833 -7 9 C-6.34 8.67 -5.68 8.34 -5 8 C-5 7.34 -5 6.68 -5 6 C-3.68 5.67 -2.36 5.34 -1 5 C-0.67 3.35 -0.34 1.7 0 0 Z " fill="#81AE69" transform="translate(73,26)"/>
<path d="M0 0 C1.86011719 -0.02126953 1.86011719 -0.02126953 3.7578125 -0.04296875 C6.875 0.1875 6.875 0.1875 8.875 2.1875 C4.78496141 3.33732602 0.84322949 3.29844256 -3.375 3.25 C-4.12007812 3.24548828 -4.86515625 3.24097656 -5.6328125 3.23632812 C-7.4635764 3.22459246 -9.29429873 3.2066585 -11.125 3.1875 C-11.125 2.5275 -11.125 1.8675 -11.125 1.1875 C-7.41775943 0.02316565 -3.86735879 0.02018454 0 0 Z " fill="#80AE65" transform="translate(50.125,135.8125)"/>
<path d="M0 0 C0 3.51716303 -0.82445585 4.37121748 -3 7 C-1.68 7.33 -0.36 7.66 1 8 C-3.30769231 11.07692308 -3.30769231 11.07692308 -6.8125 10.6875 C-7.534375 10.460625 -8.25625 10.23375 -9 10 C-6.68116787 5.49115974 -3.93548431 3.06093224 0 0 Z " fill="#B2CBA7" transform="translate(73,44)"/>
<path d="M0 0 C1.32 0.33 2.64 0.66 4 1 C3.34 4.96 2.68 8.92 2 13 C1.34 13 0.68 13 0 13 C0 8.71 0 4.42 0 0 Z " fill="#7DAC64" transform="translate(38,42)"/>
<path d="M0 0 C0.33 0.66 0.66 1.32 1 2 C1.99 2 2.98 2 4 2 C3.34 4.97 2.68 7.94 2 11 C1.67 11 1.34 11 1 11 C0.67 9.68 0.34 8.36 0 7 C-0.99 7.66 -1.98 8.32 -3 9 C-2.44271087 5.65626525 -1.64826111 2.96687001 0 0 Z " fill="#90B77E" transform="translate(53,64)"/>
<path d="M0 0 C1.8125 0.05078125 1.8125 0.05078125 4 0.3125 C4.721875 0.39113281 5.44375 0.46976563 6.1875 0.55078125 C7.0846875 0.77314453 7.0846875 0.77314453 8 1 C8.33 1.66 8.66 2.32 9 3 C6.69 2.67 4.38 2.34 2 2 C1.67 4.64 1.34 7.28 1 10 C0.34 9.67 -0.32 9.34 -1 9 C-1.09765625 2.84765625 -1.09765625 2.84765625 -1 1 C-0.67 0.67 -0.34 0.34 0 0 Z " fill="#E0E8DB" transform="translate(42,45)"/>
<path d="M0 0 C2.375 -0.1875 2.375 -0.1875 5 0 C7 3 7 3 7 6 C6.34 6 5.68 6 5 6 C4.67 6.66 4.34 7.32 4 8 C2.3372974 5.32521756 1.00016187 3.0004856 0 0 Z " fill="#7FB065" transform="translate(97,33)"/>
<path d="M0 0 C0.66 0.33 1.32 0.66 2 1 C1.01 2.485 1.01 2.485 0 4 C-1.4800841 3.88637738 -2.95910074 3.75877092 -4.4375 3.625 C-5.26121094 3.55539063 -6.08492188 3.48578125 -6.93359375 3.4140625 C-7.61550781 3.27742188 -8.29742187 3.14078125 -9 3 C-9.33 2.34 -9.66 1.68 -10 1 C-7.98177083 1.03255208 -5.96354167 1.06510417 -3.9453125 1.09765625 C-1.91814596 1.12649242 -1.91814596 1.12649242 0 0 Z " fill="#C5D4BC" transform="translate(94,44)"/>
<path d="M0 0 C2.97 0 5.94 0 9 0 C9 0.99 9 1.98 9 3 C6.03 3 3.06 3 0 3 C0 2.01 0 1.02 0 0 Z " fill="#80AE67" transform="translate(87,31)"/>
<path d="M0 0 C0.33 0.66 0.66 1.32 1 2 C0.34 2 -0.32 2 -1 2 C-0.67 3.32 -0.34 4.64 0 6 C-3.65316671 4.75023244 -4.78065836 4.32901247 -7 1 C-4.53721199 -0.231394 -2.7204945 -0.07159196 0 0 Z " fill="#91B47E" transform="translate(117,139)"/>
<path d="M0 0 C0 0.66 0 1.32 0 2 C1.32 2.66 2.64 3.32 4 4 C0.37 4.33 -3.26 4.66 -7 5 C-2.25 0 -2.25 0 0 0 Z " fill="#84B271" transform="translate(105,120)"/>
<path d="M0 0 C0.66 0.33 1.32 0.66 2 1 C1.01 2.98 0.02 4.96 -1 7 C-1.99 7 -2.98 7 -4 7 C-4.33 6.01 -4.66 5.02 -5 4 C-3.36587557 2.29159719 -2.13093906 1.06546953 0 0 Z " fill="#83AF6C" transform="translate(78,73)"/>
<path d="M0 0 C0 0.99 0 1.98 0 3 C-0.99 3 -1.98 3 -3 3 C-4.0260734 4.31337396 -5.02727325 5.64664105 -6 7 C-6.66 7 -7.32 7 -8 7 C-7.6875 4.625 -7.6875 4.625 -7 2 C-4 0 -4 0 0 0 Z " fill="#86B171" transform="translate(91,62)"/>
<path d="M0 0 C0.33 0 0.66 0 1 0 C1.50632171 5.31637797 0.24708376 7.82517803 -3 12 C-4.75 13.875 -4.75 13.875 -6 15 C-6.66 14.67 -7.32 14.34 -8 14 C-7.50628906 13.40832031 -7.01257813 12.81664062 -6.50390625 12.20703125 C-5.86324219 11.41683594 -5.22257812 10.62664063 -4.5625 9.8125 C-3.92441406 9.03519531 -3.28632812 8.25789063 -2.62890625 7.45703125 C-0.92823443 4.89174929 -0.38169969 3.02671729 0 0 Z " fill="#DCE4D6" transform="translate(105,36)"/>
<path d="M0 0 C0.66 0 1.32 0 2 0 C3 3 3 3 2 6 C4.475 6.99 4.475 6.99 7 8 C6.01 8.495 6.01 8.495 5 9 C2.4375 7.875 2.4375 7.875 0 6 C-0.875 3.375 -0.875 3.375 -1 1 C-0.67 0.67 -0.34 0.34 0 0 Z " fill="#B0CDA2" transform="translate(63,104)"/>
<path d="M0 0 C0.433125 0.9590625 0.433125 0.9590625 0.875 1.9375 C1.82823451 4.15206079 1.82823451 4.15206079 4 5 C4 6.32 4 7.64 4 9 C3.01 8.67 2.02 8.34 1 8 C-0.33106622 7.65772583 -1.66400079 7.32248257 -3 7 C-2.690625 6.401875 -2.38125 5.80375 -2.0625 5.1875 C-0.89790296 2.91043228 -0.89790296 2.91043228 0 0 Z " fill="#8CB479" transform="translate(77,39)"/>
<path d="M0 0 C2.12508244 3.18762365 2.5020163 5.26512223 3 9 C2.01 9.33 1.02 9.66 0 10 C-1.125 3.375 -1.125 3.375 0 0 Z " fill="#7CAE64" transform="translate(50,79)"/>
<path d="M0 0 C0 0.66 0 1.32 0 2 C-2.5 3.625 -2.5 3.625 -5 5 C-5.33 4.34 -5.66 3.68 -6 3 C-6.99 3.33 -7.98 3.66 -9 4 C-8.67 3.01 -8.34 2.02 -8 1 C-5.23735711 0.40267181 -2.83967231 0 0 0 Z " fill="#9FBE8B" transform="translate(84,71)"/>
<path d="M0 0 C0.99 0 1.98 0 3 0 C3.22036864 3.85645121 2.60355101 6.49223216 1 10 C0.67 10 0.34 10 0 10 C0 6.7 0 3.4 0 0 Z " fill="#83AE6F" transform="translate(55,50)"/>
<path d="M0 0 C1.9375 0.375 1.9375 0.375 4 1 C4.33 1.66 4.66 2.32 5 3 C4.34 3 3.68 3 3 3 C2.34 4.65 1.68 6.3 1 8 C0.67 8 0.34 8 0 8 C0 5.36 0 2.72 0 0 Z " fill="#DDE5D6" transform="translate(110,77)"/>
<path d="M0 0 C0.66 0.33 1.32 0.66 2 1 C1 4 1 4 -1.4375 5.75 C-2.7059375 6.36875 -2.7059375 6.36875 -4 7 C-4.66 6.67 -5.32 6.34 -6 6 C-4.02 4.02 -2.04 2.04 0 0 Z " fill="#94B680" transform="translate(84,129)"/>
<path d="M0 0 C-2.97180943 1.89865603 -5.51460083 3.35455571 -9 4 C-8 1 -8 1 -5.625 -0.25 C-3 -1 -3 -1 0 0 Z " fill="#7CAD62" transform="translate(41,73)"/>
<path d="M0 0 C0.33 0 0.66 0 1 0 C1 2.31 1 4.62 1 7 C0.01 7.33 -0.98 7.66 -2 8 C-1.125 1.125 -1.125 1.125 0 0 Z " fill="#7BB067" transform="translate(53,68)"/>
<path d="M0 0 C0.33 0.66 0.66 1.32 1 2 C1.99 2 2.98 2 4 2 C3.34 3.32 2.68 4.64 2 6 C1.01 6 0.02 6 -1 6 C-0.67 5.01 -0.34 4.02 0 3 C0 2.01 0 1.02 0 0 Z " fill="#96B684" transform="translate(96,44)"/>
<path d="M0 0 C3.3 0 6.6 0 10 0 C8.68 0.33 7.36 0.66 6 1 C6 1.66 6 2.32 6 3 C5.01 3.33 4.02 3.66 3 4 C2.01 2.68 1.02 1.36 0 0 Z " fill="#8DB77E" transform="translate(62,31)"/>
</svg>
