<?xml version="1.0" encoding="UTF-8"?>
<svg version="1.1" xmlns="http://www.w3.org/2000/svg" width="750" height="374">
<path d="M0 0 C6.82692492 5.3983531 9.3412666 12.96253866 12 21 C12.51949219 20.59007813 13.03898438 20.18015625 13.57421875 19.7578125 C19.38844071 15.26549313 23.82616934 12.42453118 31.34375 12.625 C40.93383277 13.97889404 48.89389691 18.62837785 56 25 C55.2266555 31.91939815 51.88343606 36.38872846 48 42 C47.278125 43.093125 46.55625 44.18625 45.8125 45.3125 C41.07291591 49.84143591 35.11406244 53.83420942 28.3828125 54.10546875 C22.63943055 53.12377247 17.55921407 50.54162379 12.4453125 47.828125 C10.07526618 46.76305071 10.07526618 46.76305071 7.953125 47.609375 C5.65193805 49.24782011 3.66817082 51.04748181 1.625 53 C-2.43886422 56.75079616 -6.64506314 59.94013998 -11.1875 63.0625 C-22.72727599 71.13556896 -29.11093374 80.69806824 -31.71484375 94.8046875 C-33.29166172 106.94402587 -30.36505196 117.98424784 -22.921875 127.78125 C-18.92024191 132.40102154 -14.68036405 136.0914608 -9.36328125 139.09814453 C-8.25339844 139.72575684 -7.14351562 140.35336914 -6 141 C-5.7458113 135.46641913 -5.5992418 129.94373045 -5.54833984 124.40454102 C-5.5163752 122.52524613 -5.45595858 120.64619822 -5.36572266 118.76879883 C-4.85467991 109.69997069 -4.85467991 109.69997069 -7 101 C-10.44858369 97.3459382 -14.76608841 95.49041364 -19.35742188 93.63647461 C-23 92 -23 92 -24.50195312 89.78344727 C-24.66630859 89.19490967 -24.83066406 88.60637207 -25 88 C-23.35 86.02 -21.7 84.04 -20 82 C-14.65957039 83.44335935 -10.16021371 86.0341949 -5.390625 88.7578125 C-3.1532285 90.15369293 -3.1532285 90.15369293 -1 90 C0.45402342 88.3623728 1.83848678 86.66265804 3.1875 84.9375 C15.27301261 69.91693433 31.05293682 57.04403344 50.6875 54.1875 C54.54085251 53.85007859 57.4545963 54.31593324 61 56 C62.35700647 58.71401294 62.1123861 60.84846316 62.09765625 63.8828125 C62.09443359 65.04941406 62.09121094 66.21601563 62.08789062 67.41796875 C62.07951172 68.64128906 62.07113281 69.86460937 62.0625 71.125 C62.05798828 72.35605469 62.05347656 73.58710938 62.04882812 74.85546875 C62.0370133 77.90369392 62.02054028 80.95182314 62 84 C62.91620117 84.28681641 63.83240234 84.57363281 64.77636719 84.86914062 C67.36107538 85.77586346 69.31535995 86.61750756 71.578125 88.09375 C72.48304688 88.67962891 72.48304688 88.67962891 73.40625 89.27734375 C74.0146875 89.68082031 74.623125 90.08429688 75.25 90.5 C76.18585938 91.10521484 76.18585938 91.10521484 77.140625 91.72265625 C79.62738694 93.34655467 81.89435456 94.89435456 84 97 C84.25726891 98.98406792 84.25726891 98.98406792 84.26742554 101.46554565 C84.28022049 102.87457657 84.28022049 102.87457657 84.29327393 104.31207275 C84.29191437 105.86278473 84.29191437 105.86278473 84.29052734 107.44482422 C84.29724457 108.531091 84.30396179 109.61735779 84.31088257 110.73654175 C84.3299463 114.34263633 84.33379104 117.94854561 84.3359375 121.5546875 C84.34235976 124.053315 84.34908768 126.55194174 84.35610962 129.05056763 C84.36810347 134.29462899 84.37187372 139.53864306 84.37060547 144.78271484 C84.36940423 150.84378303 84.39049948 156.90449501 84.4220928 162.96547306 C84.45139709 168.79500139 84.45858156 174.62438871 84.45738602 180.45398331 C84.45975079 182.93475931 84.4686232 185.41553778 84.48405075 187.89626694 C84.5035918 191.36327614 84.49791872 194.82936346 84.48583984 198.29638672 C84.49707886 199.32614624 84.50831787 200.35590576 84.51989746 201.41687012 C84.4583662 208.34818529 84.4583662 208.34818529 82.12124634 211.67166138 C80 213 80 213 77.57421875 212.95703125 C74.64680297 211.86869003 72.38319784 210.46078788 69.8125 208.6875 C57.07889846 200.34656369 43.75655995 197.09206692 28.79248047 200.13012695 C19.00957854 202.30113004 11.06201533 205.91607776 3 211.9375 C2.01 212.618125 1.02 213.29875 0 214 C-0.99 213.67 -1.98 213.34 -3 213 C-3 212.34 -3 211.68 -3 211 C-3.79277344 210.61134766 -3.79277344 210.61134766 -4.6015625 210.21484375 C-6.40461149 209.30157301 -8.18810016 208.349523 -9.9609375 207.37890625 C-26.09739844 198.79371822 -40.57423244 197.11539372 -58.02832031 202.34082031 C-64.052629 204.35489083 -69.76342965 207.14496224 -74.65625 211.203125 C-77 213 -77 213 -79.8125 212.75 C-80.8953125 212.37875 -80.8953125 212.37875 -82 212 C-82 211.34 -82 210.68 -82 210 C-82.66 210 -83.32 210 -84 210 C-84.11684226 195.3530864 -84.20499233 180.70623454 -84.25906086 166.05894947 C-84.28483409 159.25780971 -84.31996701 152.45695966 -84.37719727 145.65600586 C-84.43238765 139.09432815 -84.4614114 132.53287258 -84.47438622 125.97095299 C-84.48363415 123.46585028 -84.50169297 120.9607643 -84.52865028 118.45578957 C-84.56487789 114.95038699 -84.56994771 111.44623309 -84.56762695 107.94067383 C-84.58560333 106.90201675 -84.60357971 105.86335968 -84.62210083 104.79322815 C-84.57149914 97.74280064 -84.57149914 97.74280064 -81.65299988 93.94950867 C-63.69907951 80.75639711 -63.69907951 80.75639711 -53.5625 81.125 C-51 82 -51 82 -49 85 C-49.125 87.5 -49.125 87.5 -50 90 C-52.87071816 92.55825904 -55.68631366 93.74244849 -59.3125 94.9375 C-63.95152105 96.58320359 -68.02662911 98.06316065 -72 101 C-73.0908173 105.36470662 -73.12650762 109.64614157 -73.12939453 114.12841797 C-73.13114685 114.8156041 -73.13289917 115.50279022 -73.13470459 116.21080017 C-73.1390859 118.47128874 -73.13619497 120.73169819 -73.1328125 122.9921875 C-73.13348738 124.58196019 -73.13445893 126.17173278 -73.13571167 127.76150513 C-73.13718427 131.09524517 -73.135051 134.42895839 -73.13037109 137.76269531 C-73.12472057 141.98939128 -73.12792563 146.21602307 -73.13394356 150.4427166 C-73.13760098 153.73058533 -73.13638635 157.01843951 -73.13381577 160.30630875 C-73.13315829 161.86167534 -73.1339326 163.41704335 -73.13629532 164.97240829 C-73.14858967 175.3540231 -72.76668101 185.64625436 -72 196 C-71.15630859 195.55897949 -70.31261719 195.11795898 -69.44335938 194.66357422 C-59.25704452 189.33890964 -51.21557285 187.60788726 -39.8125 187.625 C-38.70205322 187.62661133 -37.59160645 187.62822266 -36.44750977 187.62988281 C-24.57789525 187.80739189 -16.68676425 190.65661788 -6 196 C-6.33 181.81 -6.66 167.62 -7 153 C-10.96 151.02 -14.92 149.04 -19 147 C-22.67050723 144.30859829 -25.80991292 141.2415401 -29 138 C-29.57492187 137.42378906 -30.14984375 136.84757813 -30.7421875 136.25390625 C-41.00943637 125.16208558 -44.674202 111.04387807 -44.29296875 96.17578125 C-43.60285185 88.69491407 -41.79783232 81.51056969 -38 75 C-38.61746094 74.92523438 -39.23492188 74.85046875 -39.87109375 74.7734375 C-47.43754609 73.59873714 -53.65032171 71.10131342 -58.6015625 65.0390625 C-63.6552601 57.32552406 -64.78936491 50.13749684 -64 41 C-62.97378936 36.52965778 -61.94751016 33.63167344 -58 31 C-48.25867815 29.9105934 -39.74851594 30.8532073 -31.71484375 36.6484375 C-25.23958166 42.03077877 -22.78779573 46.88615786 -21 55 C-8.51746023 47.66882149 -8.51746023 47.66882149 1 37 C1.36034523 34.41118198 1.36034523 34.41118198 1.1875 31.75 C1.14689453 30.41195312 1.14689453 30.41195312 1.10546875 29.046875 C1.05326172 28.03367187 1.05326172 28.03367187 1 27 C0.16597656 27.0928125 -0.66804687 27.185625 -1.52734375 27.28125 C-7.7913727 27.68306629 -12.12581984 27.73143559 -17.0625 23.5625 C-21.71080052 18.74330608 -24.15352562 13.72448727 -25.625 7.25 C-24.60222107 3.56799584 -22.15884708 1.84632414 -19 0 C-12.21356748 -3.19226436 -6.59774483 -3.94390333 0 0 Z M-11 10 C-11 11.32 -11 12.64 -11 14 C-8.29120665 15.35439668 -5.99066732 15.06501451 -3 15 C-4.22007944 12.3094472 -4.22007944 12.3094472 -6 10 C-7.66617115 9.95936168 -9.33388095 9.957279 -11 10 Z M18 31 C16.07086655 34.18310846 16.07086655 34.18310846 15 37 C20.4125063 40.26792833 24.91926318 41.92221617 31.3046875 41.7265625 C36.39890242 40.35333935 39.23006198 36.28821955 42 32 C42.33 31.01 42.66 30.02 43 29 C33.90088146 23.60792975 25.23841246 22.07262463 18 31 Z M-52 43 C-52.48758739 50.45612833 -52.48758739 50.45612833 -50.375 57.5 C-45.54869431 62.58032178 -40.69481463 63.42286081 -34 64 C-33.01749902 55.15657608 -33.01749902 55.15657608 -35.23046875 46.92578125 C-39.07154109 43.76756621 -42.85967651 42.86753154 -47.6875 42.9375 C-48.49574219 42.94652344 -49.30398438 42.95554688 -50.13671875 42.96484375 C-50.75160156 42.97644531 -51.36648438 42.98804688 -52 43 Z M16.625 84.9375 C14.31176784 87.19483568 14.31176784 87.19483568 12 90 C11.42482132 90.5764476 10.84964264 91.1528952 10.2570343 91.74681091 C2.88956349 100.25245853 4.11012145 109.84001419 4.31640625 120.4453125 C4.32948045 122.42640424 4.339436 124.40751879 4.34642029 126.38864136 C4.37300252 131.57429747 4.44163903 136.75855624 4.51934814 141.94366455 C4.59127082 147.24610497 4.62299356 152.5487737 4.65820312 157.8515625 C4.7330204 168.23498512 4.85231377 178.61737585 5 189 C5.66 189.33 6.32 189.66 7 190 C7.36609375 189.52691406 7.7321875 189.05382812 8.109375 188.56640625 C19.41331685 174.7594487 34.11651627 167.60458647 51 163 C51 130.99 51 98.98 51 66 C38.0983431 66 25.4770017 76.42029413 16.625 84.9375 Z M62 95 C61.99635437 95.93072327 61.99270874 96.86144653 61.98895264 97.82037354 C61.95201667 106.59015826 61.89425963 115.35959139 61.81609726 124.12910843 C61.77658224 128.63768219 61.74441364 133.14605946 61.72900391 137.65478516 C61.71386363 142.00573036 61.67946547 146.35613553 61.63169098 150.70684052 C61.61684992 152.36697446 61.60895742 154.02718549 61.60811615 155.68738556 C61.60575281 158.01255413 61.57872744 160.33622255 61.54589844 162.66113281 C61.55344398 163.69151924 61.55344398 163.69151924 61.56114197 164.74272156 C61.48743802 168.11493719 61.17179256 169.77751114 59.08477783 172.48040771 C58.39680115 172.98187317 57.70882446 173.48333862 57 174 C55.09765625 173.65234375 55.09765625 173.65234375 53 173 C41.42477389 175.49391944 31.11567439 181.63432614 22 189 C22.66 189.33 23.32 189.66 24 190 C25.485 189.505 25.485 189.505 27 189 C43.14146081 187.70145071 58.0195271 188.17159026 72 197 C74.10426323 194.89573677 73.17861837 190.22880323 73.19287109 187.32104492 C73.20104858 186.41048843 73.20922607 185.49993195 73.21765137 184.56178284 C73.24255724 181.53468495 73.25903444 178.5076341 73.2734375 175.48046875 C73.28142302 173.93374198 73.28142302 173.93374198 73.28956985 172.3557682 C73.31632379 166.89823778 73.33569165 161.44073042 73.35009766 155.9831543 C73.36675262 150.33681758 73.41153134 144.69106376 73.4624691 139.04494762 C73.49607531 134.71185105 73.50766785 130.37889392 73.51332474 126.04567909 C73.52005539 123.96399798 73.53532422 121.88232661 73.55921555 119.80077171 C73.5907283 116.88907354 73.59092474 113.9789616 73.58349609 111.06713867 C73.59990143 110.2041214 73.61630676 109.34110413 73.63320923 108.45193481 C73.59768109 103.55543636 73.59768109 103.55543636 70.83853149 99.62080383 C67.93697549 97.96401295 65.02991879 96.40926455 62 95 Z " fill="#95DA76" transform="translate(593,75)"/>
<path d="M0 0 C4.34104292 4.15192818 6.24952319 9.73796657 8.5 15.1875 C8.87769531 16.08275391 9.25539063 16.97800781 9.64453125 17.90039062 C12.1677692 23.90500326 14.59887416 29.94566261 17 36 C16.98428955 34.9805127 16.9685791 33.96102539 16.95239258 32.91064453 C16.89816973 29.13500848 16.86367816 25.35940696 16.83520508 21.58349609 C16.82010089 19.94802059 16.79961611 18.31258571 16.77368164 16.67724609 C16.73736855 14.32899976 16.72029068 11.98128795 16.70703125 9.6328125 C16.69154739 8.89942657 16.67606354 8.16604065 16.66011047 7.41043091 C16.65942383 5.34814453 16.65942383 5.34814453 17 2 C20.28262031 -0.18841354 21.31790898 -0.24854665 25.125 -0.1875 C26.01445312 -0.18105469 26.90390625 -0.17460937 27.8203125 -0.16796875 C30 0 30 0 31 1 C31.09432985 3.20867831 31.11742431 5.42041521 31.11352539 7.63110352 C31.11367142 8.32375305 31.11381744 9.01640259 31.1139679 9.7300415 C31.11326874 12.02969446 31.10547628 14.32926737 31.09765625 16.62890625 C31.09579208 18.21931412 31.09436817 19.80972257 31.09336853 21.40013123 C31.08954329 25.5939593 31.07971295 29.78775295 31.06866455 33.98156738 C31.05845057 38.25788914 31.05387094 42.53421644 31.04882812 46.81054688 C31.03809069 55.20704708 31.02101419 63.60351926 31 72 C28.32356043 72.89214652 26.74615622 73.13540211 24 73.125 C22.9790625 73.12886719 22.9790625 73.12886719 21.9375 73.1328125 C20 73 20 73 17 72 C15.74107181 69.54777496 14.65902264 67.17010901 13.625 64.625 C13.01239657 63.16898546 12.3991113 61.71325762 11.78515625 60.2578125 C11.48496582 59.53754883 11.18477539 58.81728516 10.87548828 58.07519531 C9.65894289 55.19158242 8.36619413 52.34509888 7.0625 49.5 C6.66160156 48.6234375 6.26070313 47.746875 5.84765625 46.84375 C5.56792969 46.2353125 5.28820312 45.626875 5 45 C4.67 45 4.34 45 4 45 C3.67 53.58 3.34 62.16 3 71 C0.23547967 72.38226016 -2.0461363 72.09525387 -5.125 72.0625 C-6.22070312 72.05347656 -7.31640625 72.04445313 -8.4453125 72.03515625 C-9.70988281 72.01775391 -9.70988281 72.01775391 -11 72 C-12.11389158 68.65832527 -12.12697911 66.15368451 -12.12939453 62.63256836 C-12.13254669 61.31788071 -12.13569885 60.00319305 -12.13894653 58.64866638 C-12.13715683 57.21239183 -12.1351059 55.77611758 -12.1328125 54.33984375 C-12.13348604 52.86918624 -12.13445648 51.39852883 -12.13571167 49.9278717 C-12.13718583 46.84700459 -12.13504282 43.76616648 -12.13037109 40.68530273 C-12.12466895 36.73178523 -12.12795765 32.77833554 -12.13394356 28.82482052 C-12.1375525 25.78885891 -12.13640914 22.75291346 -12.13381577 19.71695137 C-12.13314768 18.25886591 -12.13397081 16.800779 -12.13629532 15.34269524 C-12.13882778 13.30780947 -12.13428519 11.27291857 -12.12939453 9.23803711 C-12.12859894 8.07904404 -12.12780334 6.92005096 -12.12698364 5.72593689 C-12 3 -12 3 -11 1 C-7.3844609 -0.2051797 -3.72477776 -0.95800426 0 0 Z " fill="#8ED86E" transform="translate(312,193)"/>
<path d="M0 0 C0.70688965 0.0093457 1.4137793 0.01869141 2.14208984 0.02832031 C2.86315918 0.03508789 3.58422852 0.04185547 4.32714844 0.04882812 C12.57632825 0.20757269 20.1315541 0.69786111 26.64208984 6.27832031 C31.90264475 13.24500114 32.06045461 18.80092896 31.64208984 27.27832031 C30.62027405 33.0376457 28.64292358 36.17746573 24.64208984 40.27832031 C23.98208984 40.27832031 23.32208984 40.27832031 22.64208984 40.27832031 C25.76729774 50.68342425 29.1756311 60.98293785 32.64208984 71.27832031 C29.47390229 73.39044535 27.50989733 73.60988496 23.77490234 73.83691406 C20.24830354 72.91328104 18.90450387 71.11079141 16.64208984 68.27832031 C15.09423617 64.98841332 13.95226454 61.60808527 12.82958984 58.15332031 C12.51828125 57.24710938 12.20697266 56.34089844 11.88623047 55.40722656 C9.64208984 48.74878735 9.64208984 48.74878735 9.64208984 45.27832031 C8.65208984 45.27832031 7.66208984 45.27832031 6.64208984 45.27832031 C6.65256348 45.91334473 6.66303711 46.54836914 6.67382812 47.20263672 C6.71561451 50.10282371 6.74148756 53.00294713 6.76708984 55.90332031 C6.79222656 57.40185547 6.79222656 57.40185547 6.81787109 58.93066406 C6.85223231 64.1192074 6.74463922 68.4275568 4.64208984 73.27832031 C0.03029057 73.45917519 -3.14829711 73.12502448 -7.35791016 71.27832031 C-7.40419165 62.31639636 -7.43975796 53.35451337 -7.4615345 44.39249611 C-7.47198461 40.23134779 -7.48616607 36.07028105 -7.50878906 31.90917969 C-7.53047386 27.89565603 -7.54246953 23.88221098 -7.54766464 19.86863327 C-7.55136827 18.33517595 -7.55860027 16.80172307 -7.56937027 15.2682991 C-7.58382745 13.1252223 -7.58589056 10.98247296 -7.58496094 8.83935547 C-7.58940216 7.6180191 -7.59384338 6.39668274 -7.59841919 5.13833618 C-7.16118157 -0.06107993 -4.64622078 0.02928527 0 0 Z M7.64208984 15.27832031 C7.64208984 20.22832031 7.64208984 25.17832031 7.64208984 30.27832031 C12.09708984 29.78332031 12.09708984 29.78332031 16.64208984 29.27832031 C16.66894923 27.13255395 16.68842072 24.98669386 16.70458984 22.84082031 C16.71619141 21.64585937 16.72779297 20.45089844 16.73974609 19.21972656 C16.98110776 16.3895869 16.98110776 16.3895869 15.64208984 15.27832031 C12.97150133 15.1371687 10.31776747 15.23584924 7.64208984 15.27832031 Z " fill="#8DD86C" transform="translate(260.35791015625,192.7216796875)"/>
<path d="M0 0 C5.28 0 10.56 0 16 0 C18.69498239 7.51784847 20.48342263 15.09861272 22.171875 22.8984375 C22.46123954 24.22364742 22.75081443 25.54881143 23.04058838 26.87393188 C23.64229496 29.63153291 24.24014199 32.38993653 24.83544922 35.14892578 C25.59893101 38.68487955 26.37422427 42.21812875 27.15259933 45.7508297 C27.75169658 48.47766348 28.34355773 51.20602954 28.93332672 53.93489456 C29.35362758 55.87194918 29.78086214 57.80749513 30.20819092 59.74301147 C30.45885315 60.91498077 30.70951538 62.08695007 30.96777344 63.29443359 C31.19188904 64.32651947 31.41600464 65.35860535 31.64691162 66.42196655 C32 69 32 69 31 72 C26.71 72 22.42 72 18 72 C17.28385417 70.07942708 16.56770833 68.15885417 15.8515625 66.23828125 C14.92943604 63.81452683 13.9631058 61.4077645 13 59 C7.555 59.495 7.555 59.495 2 60 C1.87625 61.2375 1.7525 62.475 1.625 63.75 C1.22965976 66.8523227 0.86728186 69.40655297 -1 72 C-5.47254497 73.49084832 -9.52745503 73.49084832 -14 72 C-14.37040851 64.64280352 -12.96721797 57.92112344 -11.4453125 50.7421875 C-11.18370331 49.48036652 -10.92209412 48.21854553 -10.65255737 46.91848755 C-10.10090225 44.25987507 -9.54400673 41.60243637 -8.98291016 38.94580078 C-8.26666031 35.55385342 -7.56060029 32.15988827 -6.85807991 28.76507378 C-6.18298357 25.50657204 -5.50159253 22.24940225 -4.8203125 18.9921875 C-4.56814972 17.77957245 -4.31598694 16.5669574 -4.05618286 15.31759644 C-3.8160849 14.18266754 -3.57598694 13.04773865 -3.32861328 11.87841797 C-3.11987579 10.88550751 -2.91113831 9.89259705 -2.69607544 8.86959839 C-1.96763682 5.86658152 -0.97717619 2.93152858 0 0 Z M7 34 C6.34 37.3 5.68 40.6 5 44 C7.475 44.495 7.475 44.495 10 45 C10.77446576 42.21192326 11.21049043 40.56670499 10.1875 37.8125 C8.99702567 35.86105616 8.99702567 35.86105616 7 34 Z " fill="#8FD96F" transform="translate(214,193)"/>
<path d="M0 0 C0.80103149 0.00202423 1.60206299 0.00404846 2.42736816 0.00613403 C3.24483521 0.00517731 4.06230225 0.00422058 4.90454102 0.00323486 C6.63627194 0.00255308 8.3680054 0.00440724 10.09973145 0.00857544 C12.75978298 0.01392374 15.41966566 0.00863041 18.07971191 0.00222778 C19.75809771 0.00288857 21.43648339 0.00416973 23.11486816 0.00613403 C23.91589966 0.0041098 24.71693115 0.00208557 25.54223633 0 C31.15616738 0.02399575 31.15616738 0.02399575 32.27111816 1.13894653 C32.37021119 3.47054708 32.40082321 5.80524595 32.39611816 8.13894653 C32.39998535 10.05707153 32.39998535 10.05707153 32.40393066 12.01394653 C32.27111816 15.13894653 32.27111816 15.13894653 31.27111816 16.13894653 C29.56339459 16.22608485 27.85213168 16.24594661 26.14221191 16.23660278 C24.59050293 16.2317688 24.59050293 16.2317688 23.00744629 16.22683716 C21.91883301 16.21845825 20.83021973 16.21007935 19.70861816 16.20144653 C18.06989746 16.19467896 18.06989746 16.19467896 16.39807129 16.18777466 C13.68906385 16.17594493 10.98008437 16.15800884 8.27111816 16.13894653 C7.94111816 20.75894653 7.61111816 25.37894653 7.27111816 30.13894653 C13.87111816 30.13894653 20.47111816 30.13894653 27.27111816 30.13894653 C27.36877441 39.41629028 27.36877441 39.41629028 27.27111816 42.13894653 C26.27111816 43.13894653 26.27111816 43.13894653 24.41345215 43.25247192 C23.62269287 43.24723511 22.83193359 43.24199829 22.01721191 43.23660278 C21.16320801 43.23338013 20.3092041 43.23015747 19.42932129 43.22683716 C18.53148926 43.21845825 17.63365723 43.21007935 16.70861816 43.20144653 C15.80691895 43.19693481 14.90521973 43.1924231 13.97619629 43.18777466 C11.74114227 43.17594898 9.50612214 43.15801292 7.27111816 43.13894653 C7.27111816 48.08894653 7.27111816 53.03894653 7.27111816 58.13894653 C15.52111816 58.13894653 23.77111816 58.13894653 32.27111816 58.13894653 C33.78628037 61.16927095 33.44139869 63.79009615 33.27111816 67.13894653 C32.64743454 68.82216992 31.98778554 70.49316098 31.27111816 72.13894653 C26.18097677 72.30639039 21.09068322 72.46696735 16.00012207 72.62112427 C14.26764058 72.67456383 12.53521637 72.72989471 10.80285645 72.78713989 C8.31584018 72.86899647 5.82869867 72.94409641 3.34143066 73.01785278 C2.56429718 73.04488785 1.7871637 73.07192291 0.98648071 73.09977722 C-4.50113842 73.25281824 -4.50113842 73.25281824 -6.72888184 72.13894653 C-8.78866601 60.64687296 -7.88166373 48.21667231 -7.85925293 36.58718872 C-7.85385967 33.25022917 -7.85924355 29.91340218 -7.86560059 26.57644653 C-7.86494029 24.43321707 -7.86366013 22.28998769 -7.86169434 20.14675903 C-7.86371857 19.16015289 -7.8657428 18.17354675 -7.86782837 17.15704346 C-7.81011334 0.03338293 -7.81011334 0.03338293 0 0 Z " fill="#8FD870" transform="translate(160.7288818359375,192.86105346679688)"/>
<path d="M0 0 C2.10353495 -0.0810206 4.20795952 -0.13919907 6.3125 -0.1875 C7.48425781 -0.22230469 8.65601563 -0.25710937 9.86328125 -0.29296875 C13 0 13 0 14.59570312 1.28125 C16.07847369 3.09604568 16.81429247 4.59525687 17.60546875 6.79296875 C17.99702148 7.8612793 17.99702148 7.8612793 18.39648438 8.95117188 C18.65751953 9.68916016 18.91855469 10.42714844 19.1875 11.1875 C19.46013672 11.93708984 19.73277344 12.68667969 20.01367188 13.45898438 C20.68326096 15.30329116 21.34263721 17.15130012 22 19 C25.25444281 15.74555719 26.15778329 11.01286228 27.52539062 6.67773438 C28.26953125 4.52734375 28.26953125 4.52734375 30 1 C32.40625 0.01171875 32.40625 0.01171875 35 0 C35.78761719 -0.04382813 36.57523437 -0.08765625 37.38671875 -0.1328125 C38.14597656 -0.13023437 38.90523438 -0.12765625 39.6875 -0.125 C40.83798828 -0.12886719 40.83798828 -0.12886719 42.01171875 -0.1328125 C44 0 44 0 46 1 C45.35512856 5.0736656 44.04282312 8.46611203 42.34765625 12.21875 C41.81849609 13.39824219 41.28933594 14.57773438 40.74414062 15.79296875 C40.18380752 17.02874278 39.62325869 18.26441902 39.0625 19.5 C37.96833601 21.92631421 36.87683797 24.35381677 35.78515625 26.78125 C35.29926025 27.85439453 34.81336426 28.92753906 34.31274414 30.03320312 C33.66293579 31.50176758 33.66293579 31.50176758 33 33 C32.619646 33.80026611 32.23929199 34.60053223 31.84741211 35.42504883 C30.73141422 38.81612626 30.7074705 41.85085813 30.65625 45.41796875 C30.6416272 46.1164241 30.62700439 46.81487946 30.61193848 47.53450012 C30.54992359 50.50678792 30.50992664 53.47927251 30.46826172 56.4519043 C30.43459975 58.62831634 30.38949844 60.80428274 30.34375 62.98046875 C30.32505859 64.27879639 30.30636719 65.57712402 30.28710938 66.91479492 C30 70 30 70 28 72 C25.72265625 72.484375 25.72265625 72.484375 23.0625 72.75 C22.18722656 72.84796875 21.31195313 72.9459375 20.41015625 73.046875 C18 73 18 73 15 71 C14.48828125 68.84765625 14.48828125 68.84765625 14.3125 66.0625 C14.23515625 64.97453125 14.1578125 63.8865625 14.078125 62.765625 C14.02180918 60.05120266 14.08132935 57.54750175 14.296875 54.859375 C15.3545923 38.99187579 9.34890602 26.01835893 2.51708984 11.9453125 C2.05125488 10.97335938 1.58541992 10.00140625 1.10546875 9 C0.6777417 8.13375 0.25001465 7.2675 -0.19067383 6.375 C-1.08722182 3.74404409 -0.96014205 2.56532735 0 0 Z " fill="#92D873" transform="translate(423,193)"/>
<path d="M0 0 C1.73099508 1.96703986 2.00123093 3.37837853 1.99609375 5.97265625 C1.8125 8.125 1.8125 8.125 1 12 C-2.42094242 14.28062828 -3.68187222 14.21925007 -7.6875 14.125 C-9.17830078 14.09792969 -9.17830078 14.09792969 -10.69921875 14.0703125 C-11.45847656 14.04710937 -12.21773438 14.02390625 -13 14 C-12.99333817 14.66763367 -12.98667633 15.33526733 -12.97981262 16.02313232 C-12.91349109 22.96589344 -12.86821248 29.90856471 -12.83520508 36.8515625 C-12.82010985 39.44339655 -12.79963176 42.03520503 -12.77368164 44.62695312 C-12.73733173 48.35032459 -12.7202808 52.0733586 -12.70703125 55.796875 C-12.69154739 56.95741394 -12.67606354 58.11795288 -12.66011047 59.31365967 C-12.65988388 60.39447815 -12.65965729 61.47529663 -12.65942383 62.58886719 C-12.65276199 63.53928894 -12.64610016 64.48971069 -12.63923645 65.46893311 C-13.06952616 68.48778587 -13.84982804 69.85543973 -16 72 C-20.92218708 72.54690968 -23.29613262 71.88154695 -28 70 C-28 51.52 -28 33.04 -28 14 C-31.96 14 -35.92 14 -40 14 C-40.66 13.67 -41.32 13.34 -42 13 C-42.02708567 11.39592672 -42.04643483 9.7917215 -42.0625 8.1875 C-42.07410156 7.29417969 -42.08570313 6.40085938 -42.09765625 5.48046875 C-42 3 -42 3 -41 0 C-35.96480861 -0.1680811 -30.92945318 -0.32859004 -25.89379883 -0.48217773 C-24.1818192 -0.5354494 -22.46990192 -0.59076646 -20.75805664 -0.64819336 C-18.29326822 -0.73052001 -15.82834706 -0.80541647 -13.36328125 -0.87890625 C-12.60163162 -0.90594131 -11.83998199 -0.93297638 -11.05525208 -0.96083069 C-7.23301113 -1.06746047 -3.68789708 -1.0818006 0 0 Z " fill="#93D974" transform="translate(417,194)"/>
<path d="M0 0 C0.99128906 -0.00257813 1.98257813 -0.00515625 3.00390625 -0.0078125 C5.4375 0.125 5.4375 0.125 6.4375 1.125 C6.56072758 2.90403357 6.61539019 4.68786203 6.64282227 6.47094727 C6.66276749 7.6120546 6.68271271 8.75316193 6.70326233 9.92884827 C6.71997482 11.1704924 6.73668732 12.41213654 6.75390625 13.69140625 C6.77468735 14.95516586 6.79546844 16.21892548 6.81687927 17.52098083 C6.87133714 20.88618633 6.9215428 24.25140173 6.96972656 27.61669922 C7.01989759 31.04855901 7.07560655 34.48032831 7.13085938 37.91210938 C7.23820191 44.64966761 7.33994325 51.38729336 7.4375 58.125 C8.71367188 58.11339844 9.98984375 58.10179687 11.3046875 58.08984375 C12.97395687 58.08046583 14.64322783 58.07136563 16.3125 58.0625 C17.15425781 58.05412109 17.99601562 58.04574219 18.86328125 58.03710938 C19.66894531 58.03388672 20.47460938 58.03066406 21.3046875 58.02734375 C22.04831543 58.02210693 22.79194336 58.01687012 23.55810547 58.01147461 C25.4375 58.125 25.4375 58.125 27.4375 59.125 C27.4375 63.415 27.4375 67.705 27.4375 72.125 C15.8875 72.125 4.3375 72.125 -7.5625 72.125 C-7.5625 48.695 -7.5625 25.265 -7.5625 1.125 C-4.93920316 -0.18664842 -2.92551375 -0.00762846 0 0 Z " fill="#93D974" transform="translate(118.5625,192.875)"/>
<path d="M0 0 C1.85706974 1.85706974 1.14721339 4.93375104 1.16113281 7.41577148 C1.16609772 8.08570129 1.17106262 8.7556311 1.17617798 9.44586182 C1.19083146 11.67094942 1.19760651 13.89596575 1.203125 16.12109375 C1.20887344 17.66187036 1.2146312 19.20264693 1.22039795 20.74342346 C1.23091674 23.97747126 1.23675377 27.21149413 1.24023438 30.44555664 C1.24572376 34.59654806 1.26975725 38.74721221 1.29820633 42.89810085 C1.31679765 46.08161899 1.3220364 49.26505771 1.32357025 52.44862556 C1.32660482 53.97929742 1.33466029 55.50996762 1.34775543 57.04058647 C1.3647451 59.17892489 1.36295381 61.31645612 1.35644531 63.45483398 C1.36009094 64.67315414 1.36373657 65.8914743 1.36749268 67.14671326 C1.24622009 68.08829788 1.12494751 69.02988251 1 70 C-2.25082673 72.16721782 -3.29232153 72.27221018 -7.0625 72.25 C-7.94035156 72.25515625 -8.81820313 72.2603125 -9.72265625 72.265625 C-12 72 -12 72 -14 70 C-14.24723816 67.14671326 -14.24723816 67.14671326 -14.24291992 63.45483398 C-14.24481827 62.78315186 -14.24671661 62.11146973 -14.24867249 61.41943359 C-14.25238324 59.194869 -14.24167302 56.97062942 -14.23046875 54.74609375 C-14.22927712 53.20435118 -14.22882375 51.66260788 -14.2290802 50.12086487 C-14.22751488 46.88855449 -14.21922083 43.6563548 -14.20581055 40.42407227 C-14.18880639 36.2720031 -14.18499658 32.1200555 -14.18575573 27.96795559 C-14.18548439 24.78447805 -14.18000924 21.60102732 -14.17275429 18.41755867 C-14.16956288 16.88608058 -14.16759912 15.35459945 -14.16686058 13.82311821 C-14.16470278 11.68728283 -14.15597128 9.55157884 -14.14526367 7.41577148 C-14.14145187 6.19824692 -14.13764008 4.98072235 -14.13371277 3.7263031 C-14 1 -14 1 -13 0 C-8.38254321 -0.76957613 -4.55724258 -1.3809826 0 0 Z " fill="#91D473" transform="translate(367,194)"/>
<path d="M0 0 C0.99 0 1.98 0 3 0 C3 36.96 3 73.92 3 112 C2.34 112 1.68 112 1 112 C0.15699441 109.06662192 -0.12379876 106.46693056 -0.12025452 103.41888428 C-0.12162918 102.50465698 -0.12300385 101.59042969 -0.12442017 100.64849854 C-0.12082489 99.65299988 -0.11722961 98.65750122 -0.11352539 97.63183594 C-0.11367142 96.57786621 -0.11381744 95.52389648 -0.1139679 94.43798828 C-0.1132711 90.9534296 -0.10548953 87.46892434 -0.09765625 83.984375 C-0.09579124 81.56870554 -0.09436773 79.1530357 -0.09336853 76.73736572 C-0.08954986 70.37844804 -0.07972508 64.01955319 -0.06866455 57.66064453 C-0.05843649 51.17220366 -0.05386791 44.68375911 -0.04882812 38.1953125 C-0.03810226 25.46353193 -0.02122575 12.73176718 0 0 Z " fill="#A9D393" transform="translate(674,172)"/>
<path d="M0 0 C0.33 0 0.66 0 1 0 C4.18222298 19.60142388 3.10428535 40.14815738 3.125 59.9375 C3.1275882 61.08882416 3.13017639 62.24014832 3.13284302 63.42636108 C3.13876453 66.77255251 3.13708165 70.1186513 3.1328125 73.46484375 C3.13479141 74.46312195 3.13677032 75.46140015 3.1388092 76.4899292 C3.11754162 83.0420011 2.69706229 89.48552312 2 96 C1.34 96 0.68 96 0 96 C0 64.32 0 32.64 0 0 Z " fill="#82D45D" transform="translate(667,177)"/>
<path d="M0 0 C0.66 0.33 1.32 0.66 2 1 C0.38405168 3.04119788 -1.2856382 5.04072937 -3 7 C-3.66 7 -4.32 7 -5 7 C-4.96970703 7.59159912 -4.93941406 8.18319824 -4.90820312 8.79272461 C-3.1396409 45.14688148 -3.57578633 81.64088568 -5 118 C-5.33 118 -5.66 118 -6 118 C-6.11684445 103.48346725 -6.20466089 88.9670075 -6.25906086 74.4501009 C-6.28483364 67.70949387 -6.31996567 60.96917916 -6.37719727 54.22875977 C-6.43238932 47.7254413 -6.46141179 41.22231263 -6.47438622 34.71877098 C-6.48363386 32.23599653 -6.50169213 29.75323895 -6.52865028 27.27059364 C-6.56488011 23.79632085 -6.56994763 20.32330786 -6.56762695 16.84887695 C-6.58560333 15.81957062 -6.60357971 14.79026428 -6.62210083 13.72976685 C-6.57134359 6.71980148 -6.57134359 6.71980148 -3.52702332 2.88444519 C-2.69310562 2.26257828 -1.85918793 1.64071136 -1 1 C-0.67 0.67 -0.34 0.34 0 0 Z " fill="#B1D89B" transform="translate(515,166)"/>
<path d="M0 0 C0.70640625 0.00902344 1.4128125 0.01804688 2.140625 0.02734375 C2.85734375 0.03121094 3.5740625 0.03507813 4.3125 0.0390625 C9.91706343 0.12978385 15.21648723 0.81699896 20.640625 2.27734375 C20.640625 2.60734375 20.640625 2.93734375 20.640625 3.27734375 C7.770625 2.78234375 7.770625 2.78234375 -5.359375 2.27734375 C-5.194375 6.19609375 -5.029375 10.11484375 -4.859375 14.15234375 C-4.31807899 27.86432902 -4.24818682 41.55672187 -4.359375 55.27734375 C-4.689375 55.27734375 -5.019375 55.27734375 -5.359375 55.27734375 C-5.689375 60.55734375 -6.019375 65.83734375 -6.359375 71.27734375 C-6.689375 71.27734375 -7.019375 71.27734375 -7.359375 71.27734375 C-7.4056565 62.3154198 -7.4412228 53.3535368 -7.46299934 44.39151955 C-7.47344946 40.23037122 -7.48763092 36.06930449 -7.51025391 31.90820312 C-7.53193871 27.89467946 -7.54393437 23.88123442 -7.54912949 19.86765671 C-7.55283311 18.33419939 -7.56006511 16.80074651 -7.57083511 15.26732254 C-7.58529229 13.12424574 -7.5873554 10.98149639 -7.58642578 8.83837891 C-7.590867 7.61704254 -7.59530823 6.39570618 -7.59988403 5.13735962 C-7.16263768 -0.06216031 -4.64662755 0.02701528 0 0 Z " fill="#BAE2A5" transform="translate(260.359375,192.72265625)"/>
<path d="M0 0 C0.33 0 0.66 0 1 0 C1.13058182 11.55234464 1.26098282 23.1046913 1.39115143 34.6570406 C1.45159621 40.02095451 1.51210385 45.3848677 1.57275391 50.7487793 C1.63125578 55.92290777 1.68959415 61.09703806 1.74781799 66.27116966 C1.77008715 68.24757135 1.79241574 70.22397236 1.81480408 72.2003727 C1.84609331 74.96341405 1.87717334 77.72645768 1.90820312 80.48950195 C1.91755386 81.31093185 1.9269046 82.13236176 1.9365387 82.97868347 C1.9701434 85.98597245 2 88.99249557 2 92 C1.34 92 0.68 92 0 92 C0 61.64 0 31.28 0 0 Z " fill="#E7F7D6" transform="translate(597,175)"/>
<path d="M0 0 C6.6 0 13.2 0 20 0 C20.09765625 9.27734375 20.09765625 9.27734375 20 12 C19 13 19 13 17.14233398 13.11352539 C16.35157471 13.10828857 15.56081543 13.10305176 14.74609375 13.09765625 C13.89208984 13.09443359 13.03808594 13.09121094 12.15820312 13.08789062 C11.26037109 13.07951172 10.36253906 13.07113281 9.4375 13.0625 C8.53580078 13.05798828 7.63410156 13.05347656 6.70507812 13.04882812 C4.47002411 13.03700244 2.23500398 13.01906638 0 13 C0 17.62 0 22.24 0 27 C-0.33 27 -0.66 27 -1 27 C-1 22.05 -1 17.1 -1 12 C5.27 12 11.54 12 18 12 C17.67 9.03 17.34 6.06 17 3 C15.66195312 2.92652344 15.66195312 2.92652344 14.296875 2.8515625 C12.54117188 2.73941406 12.54117188 2.73941406 10.75 2.625 C9.58984375 2.55539063 8.4296875 2.48578125 7.234375 2.4140625 C4 2 4 2 0 0 Z " fill="#C4E9B1" transform="translate(168,223)"/>
<path d="M0 0 C4 3 4 3 4.4609375 5.375 C4.43257812 6.24125 4.40421875 7.1075 4.375 8 C4.36210938 8.86625 4.34921875 9.7325 4.3359375 10.625 C4 13 4 13 2 16 C-2.34586828 16.39507893 -4.32003497 16.45331002 -8 14 C-5.36 14.33 -2.72 14.66 0 15 C0 10.05 0 5.1 0 0 Z " fill="#BFE5AE" transform="translate(559,124)"/>
<path d="M0 0 C1.485 0.99 1.485 0.99 3 2 C2.67 2.66 2.34 3.32 2 4 C2.99 4.33 3.98 4.66 5 5 C5.89135742 6.67407227 5.89135742 6.67407227 6.60546875 8.81640625 C6.86650391 9.58017578 7.12753906 10.34394531 7.39648438 11.13085938 C7.78803711 12.33452148 7.78803711 12.33452148 8.1875 13.5625 C8.46013672 14.36880859 8.73277344 15.17511719 9.01367188 16.00585938 C9.68637481 18.00036455 10.34456415 19.99975402 11 22 C10.34 22.66 9.68 23.32 9 24 C4.60546875 13.74609375 4.60546875 13.74609375 3.81005859 11.87841797 C3.26172721 10.60691054 2.70177928 9.34036057 2.13134766 8.07861328 C0.84248111 5.19855348 0 3.19443959 0 0 Z " fill="#AEE094" transform="translate(319,239)"/>
<path d="M0 0 C0.66 0.33 1.32 0.66 2 1 C-1.96901007 7.73006055 -7.68594296 14.8749029 -15 18 C-13.34890181 13.93122232 -10.46404222 11.02285879 -7.5 7.875 C-7.00113281 7.33746094 -6.50226562 6.79992187 -5.98828125 6.24609375 C-4.02214504 4.13236554 -2.04136111 2.04136111 0 0 Z " fill="#ABE094" transform="translate(608,147)"/>
<path d="M0 0 C0.66 0.33 1.32 0.66 2 1 C0.38405168 3.04119788 -1.2856382 5.04072937 -3 7 C-3.66 7 -4.32 7 -5 7 C-5 16.24 -5 25.48 -5 35 C-5.33 35 -5.66 35 -6 35 C-6.12406007 30.96174934 -6.21455045 26.92424362 -6.2746582 22.88452148 C-6.29972617 21.51192898 -6.33379082 20.13946898 -6.37719727 18.76733398 C-6.43817531 16.78949304 -6.46361009 14.81065816 -6.48828125 12.83203125 C-6.51446533 11.64327393 -6.54064941 10.4545166 -6.56762695 9.22973633 C-5.83979425 5.08844651 -4.15905609 3.66437794 -1 1 C-0.67 0.67 -0.34 0.34 0 0 Z " fill="#CEEBBE" transform="translate(515,166)"/>
<path d="M0 0 C0.33 0 0.66 0 1 0 C1 6.93 1 13.86 1 21 C-0.32 20.34 -1.64 19.68 -3 19 C-2.34 18.67 -1.68 18.34 -1 18 C-1.01160156 17.3709375 -1.02320313 16.741875 -1.03515625 16.09375 C-1.09286873 10.61930912 -0.80228473 5.41542194 0 0 Z " fill="#B9DDA6" transform="translate(588,253)"/>
<path d="M0 0 C-0.46706852 2.17965311 -0.95799393 3.92587165 -2.0625 5.875 C-3.28980643 8.65689456 -3.13660754 10.99463406 -3 14 C-5.48363481 11.51636519 -5.73753964 9.40641015 -6.10546875 5.9765625 C-6 4 -6 4 -4.1875 1.5 C-2 0 -2 0 0 0 Z " fill="#C0E3AF" transform="translate(574,76)"/>
<path d="M0 0 C3.93333333 5.24444444 3.93333333 5.24444444 5 8 C4.67 8.99 4.34 9.98 4 11 C3.34 10.67 2.68 10.34 2 10 C1.67 11.65 1.34 13.3 1 15 C0.67 15 0.34 15 0 15 C0 10.05 0 5.1 0 0 Z " fill="#DEEFD5" transform="translate(314,228)"/>
<path d="M0 0 C2 1 2 1 2.6328125 2.84765625 C2.79523437 3.57855469 2.95765625 4.30945313 3.125 5.0625 C3.29257812 5.79597656 3.46015625 6.52945313 3.6328125 7.28515625 C3.75398437 7.85105469 3.87515625 8.41695312 4 9 C5.32 8.67 6.64 8.34 8 8 C7.67 8.66 7.34 9.32 7 10 C6.34 10 5.68 10 5 10 C5 10.66 5 11.32 5 12 C3.68 11.67 2.36 11.34 1 11 C0.67 7.37 0.34 3.74 0 0 Z " fill="#CDEDBE" transform="translate(568,121)"/>
<path d="M0 0 C2.61885488 2.36944013 4.41866551 4.83733102 6 8 C5.67 8.99 5.34 9.98 5 11 C3.96680187 9.7391988 2.94875621 8.46596742 1.9375 7.1875 C1.08478516 6.12595703 1.08478516 6.12595703 0.21484375 5.04296875 C-0.18605469 4.36878906 -0.58695313 3.69460937 -1 3 C-0.67 2.01 -0.34 1.02 0 0 Z " fill="#AFE494" transform="translate(557,200)"/>
<path d="M0 0 C3.96 0 7.92 0 12 0 C12 0.33 12 0.66 12 1 C7.545 1.495 7.545 1.495 3 2 C3.33 2.99 3.66 3.98 4 5 C3.01 6.485 3.01 6.485 2 8 C0.23537317 4.91190305 0 3.76687864 0 0 Z " fill="#A6DC8D" transform="translate(423,195)"/>
<path d="M0 0 C0 3.26229641 -0.21770324 4.32655486 -2 7 C-5.125 9.25 -5.125 9.25 -8 11 C-6.63629701 8.00779732 -5.05091917 5.70973471 -2.875 3.25 C-2.33617187 2.63640625 -1.79734375 2.0228125 -1.2421875 1.390625 C-0.62730469 0.70226562 -0.62730469 0.70226562 0 0 Z " fill="#C3E9B0" transform="translate(601,154)"/>
<path d="M0 0 C0.66 0.33 1.32 0.66 2 1 C-1.08290155 5.22797927 -1.08290155 5.22797927 -3 7 C-5.8125 7.375 -5.8125 7.375 -8 7 C-7.67 5.68 -7.34 4.36 -7 3 C-6.67 3.66 -6.34 4.32 -6 5 C-4.02 3.35 -2.04 1.7 0 0 Z " fill="#CCECBE" transform="translate(611,91)"/>
<path d="M0 0 C0.99 0.33 1.98 0.66 3 1 C3.33 2.98 3.66 4.96 4 7 C2.02 7.99 2.02 7.99 0 9 C0.185625 7.88625 0.37125 6.7725 0.5625 5.625 C1.31680657 2.17431139 1.31680657 2.17431139 0 0 Z " fill="#C8EBB5" transform="translate(540,157)"/>
<path d="M0 0 C0 1.65 0 3.3 0 5 C-1.98 5.99 -1.98 5.99 -4 7 C-3.625 4.0625 -3.625 4.0625 -3 1 C-1 0 -1 0 0 0 Z " fill="#B2E09D" transform="translate(455,195)"/>
<path d="M0 0 C2.9375 0.8125 2.9375 0.8125 6 2 C6.33 2.99 6.66 3.98 7 5 C1.25 3.25 1.25 3.25 -1 1 C-0.67 0.67 -0.34 0.34 0 0 Z " fill="#B8E79D" transform="translate(654,276)"/>
<path d="M0 0 C1.485 0.99 1.485 0.99 3 2 C2.67 2.66 2.34 3.32 2 4 C2.99 4.33 3.98 4.66 5 5 C4.67 6.65 4.34 8.3 4 10 C0 4 0 4 0 0 Z " fill="#C2E9AD" transform="translate(319,239)"/>
<path d="M0 0 C0.66 0 1.32 0 2 0 C2.625 2.8125 2.625 2.8125 3 6 C2.34 6.99 1.68 7.98 1 9 C0.67 6.03 0.34 3.06 0 0 Z " fill="#F1F9EE" transform="translate(221,221)"/>
<path d="" fill="#000000" transform="translate(0,0)"/>
<path d="M0 0 C2 1 2 1 2 1 Z " fill="#000000" transform="translate(620,152)"/>
<path d="M0 0 C2 1 2 1 2 1 Z " fill="#000000" transform="translate(576,142)"/>
<path d="M0 0 C2 1 2 1 2 1 Z " fill="#000000" transform="translate(634,124)"/>
<path d="" fill="#000000" transform="translate(0,0)"/>
<path d="" fill="#000000" transform="translate(0,0)"/>
<path d="" fill="#000000" transform="translate(0,0)"/>
<path d="" fill="#000000" transform="translate(0,0)"/>
<path d="" fill="#000000" transform="translate(0,0)"/>
<path d="" fill="#000000" transform="translate(0,0)"/>
<path d="" fill="#000000" transform="translate(0,0)"/>
<path d="" fill="#000000" transform="translate(0,0)"/>
<path d="" fill="#000000" transform="translate(0,0)"/>
<path d="" fill="#000000" transform="translate(0,0)"/>
<path d="" fill="#000000" transform="translate(0,0)"/>
<path d="" fill="#000000" transform="translate(0,0)"/>
<path d="" fill="#000000" transform="translate(0,0)"/>
<path d="" fill="#000000" transform="translate(0,0)"/>
<path d="" fill="#000000" transform="translate(0,0)"/>
<path d="" fill="#000000" transform="translate(0,0)"/>
<path d="" fill="#000000" transform="translate(0,0)"/>
<path d="" fill="#000000" transform="translate(0,0)"/>
<path d="" fill="#000000" transform="translate(0,0)"/>
<path d="" fill="#000000" transform="translate(0,0)"/>
<path d="" fill="#000000" transform="translate(0,0)"/>
<path d="" fill="#000000" transform="translate(0,0)"/>
<path d="" fill="#000000" transform="translate(0,0)"/>
<path d="" fill="#000000" transform="translate(0,0)"/>
<path d="" fill="#000000" transform="translate(0,0)"/>
<path d="" fill="#000000" transform="translate(0,0)"/>
<path d="" fill="#000000" transform="translate(0,0)"/>
<path d="" fill="#000000" transform="translate(0,0)"/>
<path d="" fill="#000000" transform="translate(0,0)"/>
<path d="" fill="#000000" transform="translate(0,0)"/>
<path d="" fill="#000000" transform="translate(0,0)"/>
<path d="" fill="#000000" transform="translate(0,0)"/>
<path d="" fill="#000000" transform="translate(0,0)"/>
<path d="" fill="#000000" transform="translate(0,0)"/>
<path d="" fill="#000000" transform="translate(0,0)"/>
<path d="" fill="#000000" transform="translate(0,0)"/>
<path d="" fill="#000000" transform="translate(0,0)"/>
<path d="" fill="#000000" transform="translate(0,0)"/>
<path d="" fill="#000000" transform="translate(0,0)"/>
<path d="" fill="#000000" transform="translate(0,0)"/>
<path d="" fill="#000000" transform="translate(0,0)"/>
<path d="" fill="#000000" transform="translate(0,0)"/>
<path d="" fill="#000000" transform="translate(0,0)"/>
<path d="" fill="#000000" transform="translate(0,0)"/>
<path d="" fill="#000000" transform="translate(0,0)"/>
<path d="" fill="#000000" transform="translate(0,0)"/>
<path d="" fill="#000000" transform="translate(0,0)"/>
<path d="" fill="#000000" transform="translate(0,0)"/>
<path d="" fill="#000000" transform="translate(0,0)"/>
<path d="" fill="#000000" transform="translate(0,0)"/>
<path d="" fill="#000000" transform="translate(0,0)"/>
<path d="" fill="#000000" transform="translate(0,0)"/>
<path d="" fill="#000000" transform="translate(0,0)"/>
<path d="" fill="#000000" transform="translate(0,0)"/>
<path d="" fill="#000000" transform="translate(0,0)"/>
<path d="" fill="#000000" transform="translate(0,0)"/>
<path d="" fill="#000000" transform="translate(0,0)"/>
<path d="" fill="#000000" transform="translate(0,0)"/>
<path d="" fill="#000000" transform="translate(0,0)"/>
<path d="" fill="#000000" transform="translate(0,0)"/>
<path d="" fill="#000000" transform="translate(0,0)"/>
<path d="" fill="#000000" transform="translate(0,0)"/>
<path d="" fill="#000000" transform="translate(0,0)"/>
<path d="" fill="#000000" transform="translate(0,0)"/>
<path d="" fill="#000000" transform="translate(0,0)"/>
<path d="" fill="#000000" transform="translate(0,0)"/>
<path d="" fill="#000000" transform="translate(0,0)"/>
<path d="" fill="#000000" transform="translate(0,0)"/>
<path d="" fill="#000000" transform="translate(0,0)"/>
<path d="" fill="#000000" transform="translate(0,0)"/>
<path d="" fill="#000000" transform="translate(0,0)"/>
<path d="" fill="#000000" transform="translate(0,0)"/>
<path d="" fill="#000000" transform="translate(0,0)"/>
<path d="" fill="#000000" transform="translate(0,0)"/>
<path d="" fill="#000000" transform="translate(0,0)"/>
<path d="" fill="#000000" transform="translate(0,0)"/>
<path d="" fill="#000000" transform="translate(0,0)"/>
<path d="" fill="#000000" transform="translate(0,0)"/>
<path d="" fill="#000000" transform="translate(0,0)"/>
<path d="" fill="#000000" transform="translate(0,0)"/>
<path d="" fill="#000000" transform="translate(0,0)"/>
<path d="" fill="#000000" transform="translate(0,0)"/>
<path d="" fill="#000000" transform="translate(0,0)"/>
<path d="" fill="#000000" transform="translate(0,0)"/>
<path d="" fill="#000000" transform="translate(0,0)"/>
<path d="" fill="#000000" transform="translate(0,0)"/>
<path d="" fill="#000000" transform="translate(0,0)"/>
<path d="" fill="#000000" transform="translate(0,0)"/>
<path d="" fill="#000000" transform="translate(0,0)"/>
<path d="" fill="#000000" transform="translate(0,0)"/>
<path d="" fill="#000000" transform="translate(0,0)"/>
<path d="" fill="#000000" transform="translate(0,0)"/>
<path d="" fill="#000000" transform="translate(0,0)"/>
<path d="" fill="#000000" transform="translate(0,0)"/>
<path d="" fill="#000000" transform="translate(0,0)"/>
<path d="" fill="#000000" transform="translate(0,0)"/>
<path d="" fill="#000000" transform="translate(0,0)"/>
<path d="" fill="#000000" transform="translate(0,0)"/>
<path d="" fill="#000000" transform="translate(0,0)"/>
<path d="" fill="#000000" transform="translate(0,0)"/>
<path d="" fill="#000000" transform="translate(0,0)"/>
<path d="" fill="#000000" transform="translate(0,0)"/>
<path d="" fill="#000000" transform="translate(0,0)"/>
<path d="" fill="#000000" transform="translate(0,0)"/>
<path d="" fill="#000000" transform="translate(0,0)"/>
<path d="" fill="#000000" transform="translate(0,0)"/>
<path d="" fill="#000000" transform="translate(0,0)"/>
<path d="" fill="#000000" transform="translate(0,0)"/>
<path d="" fill="#000000" transform="translate(0,0)"/>
<path d="" fill="#000000" transform="translate(0,0)"/>
<path d="" fill="#000000" transform="translate(0,0)"/>
<path d="" fill="#000000" transform="translate(0,0)"/>
<path d="" fill="#000000" transform="translate(0,0)"/>
<path d="" fill="#000000" transform="translate(0,0)"/>
<path d="" fill="#000000" transform="translate(0,0)"/>
<path d="" fill="#000000" transform="translate(0,0)"/>
<path d="" fill="#000000" transform="translate(0,0)"/>
<path d="" fill="#000000" transform="translate(0,0)"/>
<path d="" fill="#000000" transform="translate(0,0)"/>
<path d="" fill="#000000" transform="translate(0,0)"/>
<path d="" fill="#000000" transform="translate(0,0)"/>
<path d="" fill="#000000" transform="translate(0,0)"/>
<path d="" fill="#000000" transform="translate(0,0)"/>
<path d="" fill="#000000" transform="translate(0,0)"/>
<path d="" fill="#000000" transform="translate(0,0)"/>
<path d="" fill="#000000" transform="translate(0,0)"/>
<path d="" fill="#000000" transform="translate(0,0)"/>
<path d="" fill="#000000" transform="translate(0,0)"/>
<path d="" fill="#000000" transform="translate(0,0)"/>
<path d="" fill="#000000" transform="translate(0,0)"/>
<path d="" fill="#000000" transform="translate(0,0)"/>
<path d="" fill="#000000" transform="translate(0,0)"/>
<path d="" fill="#000000" transform="translate(0,0)"/>
<path d="" fill="#000000" transform="translate(0,0)"/>
<path d="" fill="#000000" transform="translate(0,0)"/>
<path d="" fill="#000000" transform="translate(0,0)"/>
<path d="" fill="#000000" transform="translate(0,0)"/>
<path d="" fill="#000000" transform="translate(0,0)"/>
<path d="" fill="#000000" transform="translate(0,0)"/>
<path d="" fill="#000000" transform="translate(0,0)"/>
<path d="" fill="#000000" transform="translate(0,0)"/>
<path d="" fill="#000000" transform="translate(0,0)"/>
<path d="" fill="#000000" transform="translate(0,0)"/>
<path d="" fill="#000000" transform="translate(0,0)"/>
<path d="" fill="#000000" transform="translate(0,0)"/>
<path d="" fill="#000000" transform="translate(0,0)"/>
<path d="" fill="#000000" transform="translate(0,0)"/>
<path d="" fill="#000000" transform="translate(0,0)"/>
<path d="" fill="#000000" transform="translate(0,0)"/>
<path d="" fill="#000000" transform="translate(0,0)"/>
<path d="" fill="#000000" transform="translate(0,0)"/>
<path d="" fill="#000000" transform="translate(0,0)"/>
<path d="" fill="#000000" transform="translate(0,0)"/>
<path d="" fill="#000000" transform="translate(0,0)"/>
<path d="" fill="#000000" transform="translate(0,0)"/>
<path d="" fill="#000000" transform="translate(0,0)"/>
<path d="" fill="#000000" transform="translate(0,0)"/>
<path d="" fill="#000000" transform="translate(0,0)"/>
<path d="" fill="#000000" transform="translate(0,0)"/>
<path d="" fill="#000000" transform="translate(0,0)"/>
<path d="" fill="#000000" transform="translate(0,0)"/>
<path d="" fill="#000000" transform="translate(0,0)"/>
<path d="" fill="#000000" transform="translate(0,0)"/>
<path d="" fill="#000000" transform="translate(0,0)"/>
<path d="" fill="#000000" transform="translate(0,0)"/>
<path d="" fill="#000000" transform="translate(0,0)"/>
<path d="" fill="#000000" transform="translate(0,0)"/>
<path d="" fill="#000000" transform="translate(0,0)"/>
<path d="" fill="#000000" transform="translate(0,0)"/>
<path d="" fill="#000000" transform="translate(0,0)"/>
<path d="" fill="#000000" transform="translate(0,0)"/>
<path d="" fill="#000000" transform="translate(0,0)"/>
<path d="" fill="#000000" transform="translate(0,0)"/>
<path d="" fill="#000000" transform="translate(0,0)"/>
<path d="" fill="#000000" transform="translate(0,0)"/>
<path d="" fill="#000000" transform="translate(0,0)"/>
<path d="" fill="#000000" transform="translate(0,0)"/>
<path d="" fill="#000000" transform="translate(0,0)"/>
<path d="" fill="#000000" transform="translate(0,0)"/>
<path d="" fill="#000000" transform="translate(0,0)"/>
<path d="" fill="#000000" transform="translate(0,0)"/>
<path d="" fill="#000000" transform="translate(0,0)"/>
<path d="" fill="#000000" transform="translate(0,0)"/>
<path d="" fill="#000000" transform="translate(0,0)"/>
<path d="" fill="#000000" transform="translate(0,0)"/>
<path d="" fill="#000000" transform="translate(0,0)"/>
<path d="" fill="#000000" transform="translate(0,0)"/>
<path d="" fill="#000000" transform="translate(0,0)"/>
<path d="" fill="#000000" transform="translate(0,0)"/>
<path d="" fill="#000000" transform="translate(0,0)"/>
<path d="" fill="#000000" transform="translate(0,0)"/>
<path d="" fill="#000000" transform="translate(0,0)"/>
<path d="" fill="#000000" transform="translate(0,0)"/>
<path d="" fill="#000000" transform="translate(0,0)"/>
<path d="" fill="#000000" transform="translate(0,0)"/>
<path d="" fill="#000000" transform="translate(0,0)"/>
<path d="" fill="#000000" transform="translate(0,0)"/>
<path d="" fill="#000000" transform="translate(0,0)"/>
<path d="" fill="#000000" transform="translate(0,0)"/>
<path d="" fill="#000000" transform="translate(0,0)"/>
<path d="" fill="#000000" transform="translate(0,0)"/>
<path d="" fill="#000000" transform="translate(0,0)"/>
<path d="" fill="#000000" transform="translate(0,0)"/>
<path d="" fill="#000000" transform="translate(0,0)"/>
<path d="" fill="#000000" transform="translate(0,0)"/>
<path d="" fill="#000000" transform="translate(0,0)"/>
<path d="" fill="#000000" transform="translate(0,0)"/>
<path d="" fill="#000000" transform="translate(0,0)"/>
<path d="" fill="#000000" transform="translate(0,0)"/>
<path d="" fill="#000000" transform="translate(0,0)"/>
<path d="" fill="#000000" transform="translate(0,0)"/>
<path d="" fill="#000000" transform="translate(0,0)"/>
<path d="" fill="#000000" transform="translate(0,0)"/>
<path d="" fill="#000000" transform="translate(0,0)"/>
<path d="" fill="#000000" transform="translate(0,0)"/>
<path d="" fill="#000000" transform="translate(0,0)"/>
<path d="" fill="#000000" transform="translate(0,0)"/>
<path d="" fill="#000000" transform="translate(0,0)"/>
<path d="" fill="#000000" transform="translate(0,0)"/>
<path d="" fill="#000000" transform="translate(0,0)"/>
<path d="" fill="#000000" transform="translate(0,0)"/>
<path d="" fill="#000000" transform="translate(0,0)"/>
<path d="" fill="#000000" transform="translate(0,0)"/>
<path d="" fill="#000000" transform="translate(0,0)"/>
<path d="" fill="#000000" transform="translate(0,0)"/>
<path d="" fill="#000000" transform="translate(0,0)"/>
<path d="" fill="#000000" transform="translate(0,0)"/>
<path d="" fill="#000000" transform="translate(0,0)"/>
<path d="" fill="#000000" transform="translate(0,0)"/>
<path d="" fill="#000000" transform="translate(0,0)"/>
<path d="" fill="#000000" transform="translate(0,0)"/>
<path d="" fill="#000000" transform="translate(0,0)"/>
<path d="" fill="#000000" transform="translate(0,0)"/>
<path d="" fill="#000000" transform="translate(0,0)"/>
<path d="" fill="#000000" transform="translate(0,0)"/>
<path d="" fill="#000000" transform="translate(0,0)"/>
<path d="" fill="#000000" transform="translate(0,0)"/>
<path d="" fill="#000000" transform="translate(0,0)"/>
<path d="" fill="#000000" transform="translate(0,0)"/>
<path d="" fill="#000000" transform="translate(0,0)"/>
<path d="" fill="#000000" transform="translate(0,0)"/>
<path d="" fill="#000000" transform="translate(0,0)"/>
<path d="" fill="#000000" transform="translate(0,0)"/>
<path d="" fill="#000000" transform="translate(0,0)"/>
<path d="" fill="#000000" transform="translate(0,0)"/>
<path d="" fill="#000000" transform="translate(0,0)"/>
<path d="" fill="#000000" transform="translate(0,0)"/>
<path d="" fill="#000000" transform="translate(0,0)"/>
<path d="" fill="#000000" transform="translate(0,0)"/>
<path d="" fill="#000000" transform="translate(0,0)"/>
<path d="" fill="#000000" transform="translate(0,0)"/>
<path d="" fill="#000000" transform="translate(0,0)"/>
<path d="" fill="#000000" transform="translate(0,0)"/>
<path d="" fill="#000000" transform="translate(0,0)"/>
<path d="" fill="#000000" transform="translate(0,0)"/>
<path d="" fill="#000000" transform="translate(0,0)"/>
<path d="" fill="#000000" transform="translate(0,0)"/>
<path d="" fill="#000000" transform="translate(0,0)"/>
<path d="" fill="#000000" transform="translate(0,0)"/>
<path d="" fill="#000000" transform="translate(0,0)"/>
<path d="" fill="#000000" transform="translate(0,0)"/>
<path d="" fill="#000000" transform="translate(0,0)"/>
<path d="" fill="#000000" transform="translate(0,0)"/>
<path d="" fill="#000000" transform="translate(0,0)"/>
<path d="" fill="#000000" transform="translate(0,0)"/>
<path d="" fill="#000000" transform="translate(0,0)"/>
<path d="" fill="#000000" transform="translate(0,0)"/>
<path d="" fill="#000000" transform="translate(0,0)"/>
<path d="" fill="#000000" transform="translate(0,0)"/>
<path d="" fill="#000000" transform="translate(0,0)"/>
<path d="" fill="#000000" transform="translate(0,0)"/>
<path d="" fill="#000000" transform="translate(0,0)"/>
<path d="" fill="#000000" transform="translate(0,0)"/>
<path d="" fill="#000000" transform="translate(0,0)"/>
<path d="" fill="#000000" transform="translate(0,0)"/>
<path d="" fill="#000000" transform="translate(0,0)"/>
<path d="" fill="#000000" transform="translate(0,0)"/>
<path d="" fill="#000000" transform="translate(0,0)"/>
<path d="" fill="#000000" transform="translate(0,0)"/>
<path d="" fill="#000000" transform="translate(0,0)"/>
<path d="" fill="#000000" transform="translate(0,0)"/>
<path d="" fill="#000000" transform="translate(0,0)"/>
<path d="" fill="#000000" transform="translate(0,0)"/>
<path d="" fill="#000000" transform="translate(0,0)"/>
<path d="" fill="#000000" transform="translate(0,0)"/>
<path d="" fill="#000000" transform="translate(0,0)"/>
<path d="" fill="#000000" transform="translate(0,0)"/>
<path d="" fill="#000000" transform="translate(0,0)"/>
<path d="" fill="#000000" transform="translate(0,0)"/>
<path d="" fill="#000000" transform="translate(0,0)"/>
<path d="" fill="#000000" transform="translate(0,0)"/>
<path d="" fill="#000000" transform="translate(0,0)"/>
<path d="" fill="#000000" transform="translate(0,0)"/>
<path d="" fill="#000000" transform="translate(0,0)"/>
<path d="" fill="#000000" transform="translate(0,0)"/>
<path d="" fill="#000000" transform="translate(0,0)"/>
<path d="" fill="#000000" transform="translate(0,0)"/>
</svg>
